<svg width="2115" height="462" viewBox="0 0 2115 462" fill="none" xmlns="http://www.w3.org/2000/svg">
<g clip-path="url(#clip0_1201_140)">
<path d="M973.049 438C1095.65 438 1182.64 368.555 1184.09 209.732C1184.11 207.523 1182.32 205.68 1180.11 205.68H960.19C957.98 205.68 956.19 207.471 956.19 209.68V280.359C956.19 282.568 957.98 284.359 960.19 284.359H1076.15C1076.77 284.359 1077.24 284.916 1077.11 285.521C1076.44 288.733 1075.32 291.502 1074.21 294.272C1061.72 331.443 1023 351.267 973.049 351.267C903.737 351.267 850.66 289.315 850.66 219.31C850.66 148.065 903.737 90.4498 973.049 90.4498C1008.53 90.4498 1039.95 105.385 1062.86 130.278C1064.33 131.878 1066.8 132.087 1068.48 130.698L1134.8 75.6728C1136.51 74.2562 1136.74 71.7183 1135.28 70.0502C1097.7 27.2017 1039.55 0 973.049 0C848.787 0 752 97.884 752 219.31C752 339.496 848.787 438 973.049 438Z" fill="#7158E2"/>
<path d="M1742.74 432.424C1745.14 432.424 1747 430.321 1746.71 427.936L1695.24 9.08779C1694.99 7.0824 1693.29 5.57567 1691.27 5.57567H1613.69C1612.13 5.57567 1610.71 6.48078 1610.06 7.89495L1488.39 270.643C1488.04 271.414 1486.94 271.417 1486.58 270.649L1363.06 7.87407C1362.4 6.47124 1360.99 5.57567 1359.44 5.57567H1283.72C1281.7 5.57567 1280 7.07924 1279.75 9.08209L1227.66 427.931C1227.37 430.317 1229.23 432.424 1231.63 432.424H1324.09C1326.11 432.424 1327.82 430.908 1328.06 428.895L1355.96 193.586C1356.08 192.594 1357.42 192.369 1357.85 193.268L1448.93 381.227C1449.6 382.606 1451 383.482 1452.53 383.482H1522.45C1523.98 383.482 1525.38 382.604 1526.05 381.222L1617.13 192.674C1617.56 191.772 1618.91 191.999 1619.02 192.994L1646.31 428.884C1646.55 430.902 1648.26 432.424 1650.29 432.424H1742.74Z" fill="#7158E2"/>
<path d="M1956.39 438C2035.07 438 2115 398.97 2115 307.281C2115 229.842 2052.56 198.246 1991.36 179.661L1946.4 166.031C1906.44 154.88 1903.94 135.675 1903.94 127.001C1903.94 103.46 1923.92 84.8741 1954.52 84.8741C1986.46 84.8741 2002.15 104.323 2003.72 127.958C2003.87 130.162 2005.64 131.958 2007.85 131.958H2097.89C2100.1 131.958 2101.89 130.142 2101.84 127.934C2099.83 47.3627 2037.48 0 1956.39 0C1870.85 0 1804.66 52.0396 1804.66 128.86C1804.66 169.129 1822.77 226.744 1917.68 252.144L1968.88 267.632C2006.97 280.023 2016.34 295.511 2016.34 312.238C2016.34 340.116 1991.99 354.365 1960.14 354.365C1928.09 354.365 1901.68 335.333 1899.15 310.04C1898.93 307.841 1897.16 306.042 1894.95 306.042H1804.91C1802.7 306.042 1800.9 307.852 1800.97 310.06C1803.1 386.53 1866.17 438 1956.39 438Z" fill="#7158E2"/>
<path fill-rule="evenodd" clip-rule="evenodd" d="M9.87813 131.526C-3.29271 144.802 -3.29271 166.327 9.87813 179.603L224.508 395.952L280.152 452.043C293.323 465.319 314.677 465.319 327.848 452.043L383.492 395.952L598.122 179.603C611.293 166.327 611.293 144.802 598.122 131.526L542.477 75.4354L470.934 3.31906C466.544 -1.10635 459.426 -1.10635 455.036 3.31906L391.442 67.4225C387.051 71.8478 387.051 79.0229 391.442 83.4483L455.036 147.552C459.426 151.977 459.426 159.152 455.036 163.578L311.949 307.81C307.559 312.236 300.441 312.236 296.051 307.81L152.964 163.578C148.574 159.152 148.574 151.977 152.964 147.552L216.558 83.4483C220.949 79.0229 220.949 71.8478 216.558 67.4225L152.964 3.31906C148.574 -1.10635 141.456 -1.10635 137.066 3.31906L65.5228 75.4354L9.87813 131.526ZM232.457 147.552C228.066 151.977 228.066 159.152 232.457 163.578L296.051 227.681C300.441 232.106 307.559 232.106 311.949 227.681L375.543 163.578C379.933 159.152 379.933 151.977 375.543 147.552L311.949 83.4483C307.559 79.0229 300.441 79.0229 296.051 83.4483L232.457 147.552Z" fill="#7158E2"/>
</g>
<defs>
<clipPath id="clip0_1201_140">
<rect width="2115" height="462" fill="white"/>
</clipPath>
</defs>
</svg>
