<svg width="600" height="600" viewBox="0 0 600 600" fill="none" xmlns="http://www.w3.org/2000/svg">
<g clip-path="url(#clip0_1203_158)">
<path fill-rule="evenodd" clip-rule="evenodd" d="M280 0C291.046 0 300 8.95431 300 20V130C300 141.046 291.046 150 280 150H170C158.954 150 150 158.954 150 170V430C150 441.046 158.954 450 170 450H430C441.046 450 450 441.046 450 430V320C450 308.954 458.954 300 470 300H580C591.046 300 600 308.954 600 320V450V560C600 582.091 582.091 600 560 600H150H40C17.9086 600 0 582.091 0 560V150V40C0 17.9086 17.9086 0 40 0H280ZM235 225C229.477 225 225 229.477 225 235V365C225 370.523 229.477 375 235 375H365C370.523 375 375 370.523 375 365V235C375 229.477 370.523 225 365 225H235Z" fill="#3742FA"/>
</g>
<defs>
<clipPath id="clip0_1203_158">
<rect width="600" height="600" fill="white"/>
</clipPath>
</defs>
</svg>
