<svg width="600" height="600" viewBox="0 0 600 600" fill="none" xmlns="http://www.w3.org/2000/svg">
<path fill-rule="evenodd" clip-rule="evenodd" d="M9.74815 201.795C-3.24938 214.897 -3.24938 236.139 9.74815 249.24L221.554 462.742L276.466 518.095C289.463 531.196 310.537 531.196 323.534 518.095L378.446 462.742L590.252 249.24C603.249 236.139 603.249 214.897 590.252 201.795L535.339 146.443L464.738 75.2754C460.405 70.9082 453.381 70.9082 449.048 75.2754L386.291 138.535C381.959 142.902 381.959 149.983 386.291 154.35L449.048 217.61C453.381 221.977 453.381 229.058 449.048 233.425L307.845 375.76C303.512 380.127 296.488 380.127 292.155 375.76L150.952 233.425C146.619 229.058 146.619 221.977 150.952 217.61L213.709 154.35C218.041 149.983 218.041 142.902 213.709 138.535L150.952 75.2754C146.619 70.9082 139.595 70.9082 135.262 75.2754L64.6606 146.443L9.74815 201.795ZM229.398 217.61C225.065 221.977 225.065 229.058 229.398 233.425L292.155 296.685C296.488 301.052 303.512 301.052 307.844 296.685L370.602 233.425C374.934 229.058 374.934 221.977 370.602 217.61L307.844 154.35C303.512 149.983 296.488 149.983 292.155 154.35L229.398 217.61Z" fill="white"/>
</svg>
