<svg width="2115" height="462" viewBox="0 0 2115 462" fill="none" xmlns="http://www.w3.org/2000/svg">
<path d="M799.049 438C921.649 438 1008.64 368.555 1010.09 209.732C1010.11 207.523 1008.32 205.68 1006.11 205.68H786.19C783.98 205.68 782.19 207.471 782.19 209.68V280.359C782.19 282.568 783.98 284.359 786.19 284.359H902.147C902.766 284.359 903.237 284.916 903.111 285.521C902.44 288.733 901.324 291.502 900.207 294.272C887.719 331.443 849.004 351.267 799.049 351.267C729.737 351.267 676.66 289.315 676.66 219.31C676.66 148.065 729.737 90.4498 799.049 90.4498C834.525 90.4498 865.948 105.385 888.858 130.278C890.33 131.878 892.803 132.087 894.477 130.698L960.802 75.6728C962.51 74.2562 962.742 71.7183 961.279 70.0502C923.699 27.2017 865.546 0 799.049 0C674.787 0 578 97.884 578 219.31C578 339.496 674.787 438 799.049 438Z" fill="#3742FA"/>
<path d="M1568.74 432.424C1571.14 432.424 1573 430.321 1572.71 427.936L1521.24 9.08779C1520.99 7.0824 1519.29 5.57567 1517.27 5.57567H1439.69C1438.13 5.57567 1436.71 6.48078 1436.06 7.89495L1314.39 270.643C1314.04 271.414 1312.94 271.417 1312.58 270.649L1189.06 7.87407C1188.4 6.47124 1186.99 5.57567 1185.44 5.57567H1109.72C1107.7 5.57567 1106 7.07924 1105.75 9.08209L1053.66 427.931C1053.37 430.317 1055.23 432.424 1057.63 432.424H1150.09C1152.11 432.424 1153.82 430.908 1154.06 428.895L1181.96 193.586C1182.08 192.594 1183.42 192.369 1183.85 193.268L1274.93 381.227C1275.6 382.606 1277 383.482 1278.53 383.482H1348.45C1349.98 383.482 1351.38 382.604 1352.05 381.222L1443.13 192.674C1443.56 191.772 1444.91 191.999 1445.02 192.994L1472.31 428.884C1472.55 430.902 1474.26 432.424 1476.29 432.424H1568.74Z" fill="#3742FA"/>
<path d="M1782.39 438C1861.07 438 1941 398.97 1941 307.281C1941 229.842 1878.56 198.246 1817.36 179.661L1772.4 166.031C1732.44 154.88 1729.94 135.675 1729.94 127.001C1729.94 103.46 1749.92 84.8741 1780.52 84.8741C1812.46 84.8741 1828.15 104.323 1829.72 127.958C1829.87 130.162 1831.64 131.958 1833.85 131.958H1923.89C1926.1 131.958 1927.89 130.142 1927.84 127.934C1925.83 47.3628 1863.48 0 1782.39 0C1696.85 0 1630.66 52.0396 1630.66 128.86C1630.66 169.129 1648.77 226.744 1743.68 252.144L1794.88 267.632C1832.97 280.023 1842.34 295.511 1842.34 312.238C1842.34 340.116 1817.99 354.365 1786.14 354.365C1754.09 354.365 1727.68 335.333 1725.15 310.04C1724.93 307.841 1723.16 306.042 1720.95 306.042H1630.91C1628.7 306.042 1626.9 307.852 1626.97 310.06C1629.1 386.53 1692.17 438 1782.39 438Z" fill="#3742FA"/>
<path fill-rule="evenodd" clip-rule="evenodd" d="M215.6 0C224.105 0 231 6.89482 231 15.4V100.1C231 108.605 224.105 115.5 215.6 115.5H130.9C122.395 115.5 115.5 122.395 115.5 130.9V331.1C115.5 339.605 122.395 346.5 130.9 346.5H331.1C339.605 346.5 346.5 339.605 346.5 331.1V246.4C346.5 237.895 353.395 231 361.9 231H446.6C455.105 231 462 237.895 462 246.4V346.5V431.2C462 448.21 448.21 462 431.2 462H115.5H30.8C13.7896 462 0 448.21 0 431.2V115.5V30.8C0 13.7896 13.7896 0 30.8 0H215.6ZM180.95 173.25C176.697 173.25 173.25 176.697 173.25 180.95V281.05C173.25 285.303 176.697 288.75 180.95 288.75H281.05C285.303 288.75 288.75 285.303 288.75 281.05V180.95C288.75 176.697 285.303 173.25 281.05 173.25H180.95Z" fill="#3742FA"/>
</svg>
