<svg width="512" height="512" viewBox="0 0 512 512" fill="none" xmlns="http://www.w3.org/2000/svg">
<g clip-path="url(#clip0_4_51)">
<path d="M6 256C6 50.125 50.125 6 256 6C461.875 6 506 50.125 506 256C506 461.875 461.875 506 256 506C50.125 506 6 461.875 6 256Z" fill="white"/>
<path fill-rule="evenodd" clip-rule="evenodd" d="M256 0C45.184 0 0 45.184 0 256C0 466.816 45.184 512 256 512C466.816 512 512 466.816 512 256C512 45.184 466.816 0 256 0ZM97.5938 106.64C94.5218 109.413 90.2764 112.976 84.8577 117.328V121.488H115.642V116.624H93.6257C97.8071 113.253 101.242 110.309 103.93 107.792C106.618 105.232 109.007 102.288 111.098 98.96C113.231 95.5893 114.298 92.1333 114.298 88.592C114.298 84.3253 112.996 80.976 110.394 78.544C107.834 76.112 104.356 74.896 99.9617 74.896C95.6524 74.896 92.1324 76.1973 89.4017 78.8C86.6711 81.4027 85.2204 85.0933 85.0498 89.872H90.6817C90.8098 86.8427 91.6631 84.432 93.2418 82.64C94.8631 80.8053 97.1244 79.888 100.026 79.888C103.012 79.888 105.167 80.6987 106.49 82.32C107.855 83.8987 108.538 86.0747 108.538 88.848C108.538 91.792 107.471 94.8 105.338 97.872C103.247 100.901 100.666 103.824 97.5938 106.64ZM330.138 346V167.312H294.298V240.784H217.754V167.312H181.914V346H217.754V269.968H294.298V346H330.138ZM183.609 404.392V449H177.785V428.776H155.064V449H149.241V404.392H155.064V423.976H177.785V404.392H183.609ZM225.553 430.12C225.553 431.229 225.489 432.403 225.361 433.64H197.329C197.542 437.096 198.716 439.805 200.849 441.768C203.025 443.688 205.649 444.648 208.721 444.648C211.238 444.648 213.329 444.072 214.993 442.92C216.7 441.725 217.894 440.147 218.577 438.184H224.849C223.91 441.555 222.033 444.307 219.217 446.44C216.401 448.531 212.902 449.576 208.721 449.576C205.393 449.576 202.406 448.829 199.761 447.336C197.158 445.843 195.11 443.731 193.617 441C192.124 438.227 191.377 435.027 191.377 431.4C191.377 427.773 192.102 424.595 193.553 421.864C195.004 419.133 197.03 417.043 199.633 415.592C202.278 414.099 205.308 413.352 208.721 413.352C212.049 413.352 214.993 414.077 217.553 415.528C220.113 416.979 222.076 418.984 223.441 421.544C224.849 424.061 225.553 426.92 225.553 430.12ZM219.537 428.904C219.537 426.685 219.046 424.787 218.065 423.208C217.084 421.587 215.74 420.371 214.033 419.56C212.369 418.707 210.513 418.28 208.465 418.28C205.521 418.28 203.004 419.219 200.913 421.096C198.865 422.973 197.692 425.576 197.393 428.904H219.537ZM239.064 401.64V449H233.24V401.64H239.064ZM251.999 408.232C250.889 408.232 249.951 407.848 249.182 407.08C248.415 406.312 248.031 405.373 248.031 404.264C248.031 403.155 248.415 402.216 249.182 401.448C249.951 400.68 250.889 400.296 251.999 400.296C253.065 400.296 253.961 400.68 254.686 401.448C255.454 402.216 255.839 403.155 255.839 404.264C255.839 405.373 255.454 406.312 254.686 407.08C253.961 407.848 253.065 408.232 251.999 408.232ZM254.814 413.928V449H248.99V413.928H254.814ZM295.844 413.928V449H290.021V443.816C288.911 445.608 287.354 447.016 285.349 448.04C283.386 449.021 281.21 449.512 278.82 449.512C276.09 449.512 273.637 448.957 271.461 447.848C269.284 446.696 267.557 444.989 266.276 442.728C265.039 440.467 264.421 437.715 264.421 434.472V413.928H270.18V433.704C270.18 437.16 271.055 439.827 272.805 441.704C274.554 443.539 276.943 444.456 279.973 444.456C283.087 444.456 285.54 443.496 287.333 441.576C289.125 439.656 290.021 436.861 290.021 433.192V413.928H295.844ZM347.854 413.288C350.585 413.288 353.017 413.864 355.15 415.016C357.283 416.125 358.969 417.811 360.206 420.072C361.443 422.333 362.062 425.085 362.062 428.328V449H356.302V429.16C356.302 425.661 355.427 422.995 353.678 421.16C351.971 419.283 349.646 418.344 346.702 418.344C343.673 418.344 341.262 419.325 339.47 421.288C337.678 423.208 336.782 426.003 336.782 429.672V449H331.022V429.16C331.022 425.661 330.147 422.995 328.398 421.16C326.691 419.283 324.366 418.344 321.422 418.344C318.393 418.344 315.982 419.325 314.19 421.288C312.398 423.208 311.502 426.003 311.502 429.672V449H305.678V413.928H311.502V418.984C312.654 417.149 314.19 415.741 316.11 414.76C318.073 413.779 320.227 413.288 322.574 413.288C325.518 413.288 328.121 413.949 330.382 415.272C332.643 416.595 334.329 418.536 335.438 421.096C336.419 418.621 338.041 416.701 340.302 415.336C342.563 413.971 345.081 413.288 347.854 413.288Z" fill="#3742FA"/>
</g>
<defs>
<clipPath id="clip0_4_51">
<rect width="512" height="512" fill="white"/>
</clipPath>
</defs>
</svg>
