<svg width="446" height="96" viewBox="0 0 446 96" fill="none" xmlns="http://www.w3.org/2000/svg">
<path d="M54.8971 25.459H46.6171L32.0581 56.647L17.3611 25.459H9.21913L3.35413 73H13.1521L16.6021 43.537L28.3321 67.618H35.8531L47.4451 43.537L50.8951 73H60.6931L54.8971 25.459ZM108.635 73L90.9707 25.459H80.6207L62.8877 73H73.0997L76.8947 61.615H94.6967L98.5607 73H108.635ZM85.7957 35.257L91.8677 53.266H79.7237L85.7957 35.257ZM135.705 47.608L150.678 25.459H139.224L130.047 40.018L120.939 25.459H109.347L124.32 47.608L107.898 73H119.145L130.047 55.267L140.88 73H152.265L135.705 47.608ZM167.196 73V25.459H157.605V73H167.196ZM223.218 25.459H193.824V73H203.415V53.818H219.147V45.4H203.415V33.946H223.218V25.459ZM266.064 73L253.782 55.543C260.475 54.37 265.236 47.746 265.236 40.984C265.236 33.187 260.544 25.459 249.642 25.459H230.667V73H240.258V55.957H243.501L254.817 73H266.064ZM248.676 33.946C253.161 33.946 255.576 37.396 255.576 41.191C255.576 44.986 253.299 48.229 247.917 48.229H240.258V33.946H248.676ZM313.381 73L295.717 25.459H285.367L267.634 73H277.846L281.641 61.615H299.443L303.307 73H313.381ZM290.542 35.257L296.614 53.266H284.47L290.542 35.257ZM344.039 54.922L327.065 25.459H318.164V73H327.755V43.192L345.005 73H353.63V25.459H344.039V54.922ZM385.76 73.828C393.833 73.828 400.871 69.964 405.149 63.961L397.835 58.648C395.144 62.443 391.142 64.789 386.036 64.789C377.411 64.789 371.201 57.682 371.201 49.195C371.201 40.708 377.48 33.67 386.105 33.67C391.142 33.67 395.144 36.016 397.835 39.811L405.149 34.498C400.871 28.495 393.833 24.631 385.76 24.631C372.305 24.631 361.61 35.809 361.61 49.195C361.61 62.719 372.305 73.828 385.76 73.828ZM421.655 53.887H439.388V45.262H421.655V33.946H441.872V25.459H412.064V73H442.493V64.513H421.655V53.887Z" fill="black"/>
</svg>
