<svg width="440" height="56" viewBox="0 0 440 56" fill="none" xmlns="http://www.w3.org/2000/svg">
<path d="M50.932 4.816H41.82L28.356 34.124L14.688 4.816H5.78L0 51.668H10.948L14.076 25.08L24.276 46.296H32.436L42.636 25.012L45.696 51.668H56.644L50.932 4.816Z" fill="black"/>
<path d="M104.579 51.668L87.3067 4.816H75.6787L58.3387 51.668H69.7627L73.2307 40.788H89.6867L93.2227 51.668H104.579ZM81.3907 15.016L86.6947 31.54H76.1547L81.3907 15.016Z" fill="black"/>
<path d="M132.261 26.712L147.085 4.816H134.301L125.937 18.212L117.709 4.816H104.789L119.545 26.712L103.429 51.668H115.941L125.937 35.212L135.933 51.668H148.513L132.261 26.712Z" fill="black"/>
<path d="M163.95 51.668V4.816H153.274V51.668H163.95Z" fill="black"/>
<path d="M218.948 4.816H189.3V51.668H199.976V33.24H215.004V23.992H199.976V14.132H218.948V4.816Z" fill="black"/>
<path d="M261.981 51.668L249.945 34.6C255.997 33.24 260.893 26.916 260.893 20.32C260.893 12.568 255.997 4.816 245.117 4.816H225.941V51.668H236.617V35.212H238.793L249.537 51.668H261.981ZM243.689 14.132C248.041 14.132 250.149 17.464 250.149 20.592C250.149 23.72 248.109 26.78 243.417 26.78H236.617V14.132H243.689Z" fill="black"/>
<path d="M309.214 51.668L291.942 4.816H280.314L262.974 51.668H274.398L277.866 40.788H294.322L297.858 51.668H309.214ZM286.026 15.016L291.33 31.54H280.79L286.026 15.016Z" fill="black"/>
<path d="M338.051 31.404L323.091 4.816H313.299V51.668H323.975V24.74L339.343 51.668H348.727V4.816H338.051V31.404Z" fill="black"/>
<path d="M379.852 52.484C388.08 52.484 395.288 48.336 399.572 42.08L391.276 36.3C388.828 40.108 385.224 42.42 380.26 42.42C372.236 42.42 366.796 35.892 366.796 28.14C366.796 20.388 372.44 14.064 380.328 14.064C385.224 14.064 388.828 16.376 391.276 20.184L399.572 14.404C395.288 8.148 388.08 4 379.852 4C366.66 4 356.052 14.948 356.052 28.14C356.052 41.468 366.66 52.484 379.852 52.484Z" fill="black"/>
<path d="M416.514 33.376H433.514V23.788H416.514V14.132H435.894V4.816H405.838V51.668H436.506V42.352H416.514V33.376Z" fill="black"/>
</svg>
