<svg width="1578" height="206" viewBox="0 0 1578 206" fill="none" xmlns="http://www.w3.org/2000/svg">
<path d="M46.093 124.528H118.093V83.9201H46.093V43.0241H128.173V3.56806H0.876953V202H130.765V162.544H46.093V124.528Z" fill="black" fill-opacity="0.05"/>
<path d="M212.874 202V3.56806H167.658V202H212.874Z" fill="black" fill-opacity="0.05"/>
<path d="M348.063 205.456C382.911 205.456 413.439 187.888 431.583 161.392L396.447 136.912C386.079 153.04 370.815 162.832 349.791 162.832C315.807 162.832 292.767 135.184 292.767 102.352C292.767 69.5201 316.671 42.7361 350.079 42.7361C370.815 42.7361 386.079 52.5281 396.447 68.6561L431.583 44.1761C413.439 17.6801 382.911 0.112061 348.063 0.112061C292.191 0.112061 247.263 46.4801 247.263 102.352C247.263 158.8 292.191 205.456 348.063 205.456Z" fill="black" fill-opacity="0.05"/>
<path d="M571.594 83.0561H506.218V3.56806H461.002V202H506.218V123.664H571.594V202H616.81V3.56806H571.594V83.0561Z" fill="black" fill-opacity="0.05"/>
<path d="M707.874 124.528H779.874V83.9201H707.874V43.0241H789.954V3.56806H662.658V202H792.546V162.544H707.874V124.528Z" fill="black" fill-opacity="0.05"/>
<path d="M934.271 116.176L870.911 3.56806H829.439V202H874.655V87.9521L939.743 202H979.487V3.56806H934.271V116.176Z" fill="black" fill-opacity="0.05"/>
<path d="M1135.5 83.0561H1070.12V3.56806H1024.91V202H1070.12V123.664H1135.5V202H1180.72V3.56806H1135.5V83.0561Z" fill="black" fill-opacity="0.05"/>
<path d="M1316.42 205.456C1372.29 205.456 1417.51 158.8 1417.51 102.64C1417.51 46.4801 1372.29 0.112061 1316.42 0.112061C1259.68 0.112061 1215.04 46.4801 1215.04 102.64C1215.04 158.8 1259.68 205.456 1316.42 205.456ZM1316.13 162.832C1282.72 162.832 1260.55 135.76 1260.55 102.64C1260.55 69.5201 1282.72 42.7361 1316.13 42.7361C1349.25 42.7361 1372 69.5201 1372 102.64C1372 135.76 1349.25 162.832 1316.13 162.832Z" fill="black" fill-opacity="0.05"/>
<path d="M1577.13 3.56806H1451.56V202H1496.78V123.952H1560.43V84.7841H1496.78V43.0241H1577.13V3.56806Z" fill="black" fill-opacity="0.05"/>
</svg>
