<svg width="440" height="56" viewBox="0 0 440 56" fill="none" xmlns="http://www.w3.org/2000/svg">
<path d="M14.246 54.678V0.936003H2V54.678H14.246Z" fill="black"/>
<path d="M38.9257 0.936003H26.6797V54.678H58.6597V43.992H38.9257V0.936003Z" fill="black"/>
<path d="M106.313 55.614C115.751 55.614 124.019 50.856 128.933 43.68L119.417 37.05C116.609 41.418 112.475 44.07 106.781 44.07C97.5768 44.07 91.3368 36.582 91.3368 27.69C91.3368 18.798 97.8108 11.544 106.859 11.544C112.475 11.544 116.609 14.196 119.417 18.564L128.933 11.934C124.019 4.758 115.751 0 106.313 0C91.1808 0 79.0128 12.558 79.0128 27.69C79.0128 42.978 91.1808 55.614 106.313 55.614Z" fill="black"/>
<path d="M183.154 54.678L163.342 0.936003H150.004L130.114 54.678H143.218L147.196 42.198H166.072L170.128 54.678H183.154ZM156.556 12.636L162.64 31.59H150.55L156.556 12.636Z" fill="black"/>
<path d="M244.313 0.936003H233.861L218.417 34.554L202.739 0.936003H192.521L185.891 54.678H198.449L202.037 24.18L213.737 48.516H223.097L234.797 24.102L238.307 54.678H250.865L244.313 0.936003Z" fill="black"/>
<path d="M260.375 0.936003V54.678H272.621V36.426H282.527C295.007 36.426 300.623 27.69 300.623 18.72C300.623 9.828 295.007 0.936003 282.527 0.936003H260.375ZM272.621 25.74V11.622H282.059C286.583 11.622 288.299 15.288 288.299 18.72C288.299 22.152 286.583 25.74 281.981 25.74H272.621Z" fill="black"/>
<path d="M320.99 33.696H340.49V22.698H320.99V11.622H343.22V0.936003H308.744V54.678H343.922V43.992H320.99V33.696Z" fill="black"/>
<path d="M370.528 55.614C380.356 55.614 390.34 50.466 390.34 38.922C390.34 29.172 382.54 25.272 374.896 22.932L369.28 21.138C364.288 19.734 363.976 17.316 363.976 16.224C363.976 13.26 366.472 10.686 370.294 10.686C374.506 10.686 376.456 13.416 376.456 16.614H388.702C388.702 6.162 380.824 0 370.528 0C359.842 0 351.574 6.786 351.574 16.458C351.574 21.528 353.836 28.782 365.692 31.98L372.088 33.93C376.846 35.49 378.016 37.44 378.016 39.546C378.016 43.056 374.974 45.084 370.996 45.084C366.784 45.084 363.352 42.432 363.352 39H351.106C351.106 48.906 359.062 55.614 370.528 55.614Z" fill="black"/>
<path d="M411.939 33.696H431.439V22.698H411.939V11.622H434.169V0.936003H399.693V54.678H434.871V43.992H411.939V33.696Z" fill="black"/>
</svg>
