<svg width="446" height="96" viewBox="0 0 446 96" fill="none" xmlns="http://www.w3.org/2000/svg">
<path d="M17.7737 77V22.569H6.79274V77H17.7737ZM41.9983 22.569H31.0173V77H62.6173V67.283H41.9983V22.569ZM111.436 77.948C120.679 77.948 128.737 73.524 133.635 66.651L125.261 60.568C122.18 64.913 117.598 67.599 111.752 67.599C101.877 67.599 94.7673 59.462 94.7673 49.745C94.7673 40.028 101.956 31.97 111.831 31.97C117.598 31.97 122.18 34.656 125.261 39.001L133.635 32.918C128.737 26.045 120.679 21.621 111.436 21.621C96.0313 21.621 83.7863 34.419 83.7863 49.745C83.7863 65.229 96.0313 77.948 111.436 77.948ZM187.689 77L167.465 22.569H155.615L135.312 77H147.004L151.349 63.965H171.731L176.155 77H187.689ZM161.54 33.787L168.492 54.406H154.588L161.54 33.787ZM250.045 22.569H240.565L223.896 58.277L207.069 22.569H197.747L191.032 77H202.25L206.2 43.267L219.63 70.838H228.241L241.513 43.267L245.463 77H256.681L250.045 22.569ZM267.014 22.569V77H277.995V57.961H289.213C301.537 57.961 306.988 49.271 306.988 40.344C306.988 31.417 301.537 22.569 289.213 22.569H267.014ZM277.995 48.323V32.286H288.818C293.953 32.286 295.928 36.394 295.928 40.344C295.928 44.215 293.953 48.323 288.66 48.323H277.995ZM326.753 55.117H347.056V45.242H326.753V32.286H349.9V22.569H315.772V77H350.611V67.283H326.753V55.117ZM377.647 77.948C387.917 77.948 397.16 72.023 397.16 61.2C397.16 51.957 389.971 47.77 381.755 45.321L375.672 43.583C369.984 41.924 369.589 39.159 369.589 37.816C369.589 34.182 372.828 31.338 377.094 31.338C381.834 31.338 384.52 34.34 384.52 38.211H395.501C395.501 27.862 387.601 21.621 377.331 21.621C366.903 21.621 358.529 28.336 358.529 38.053C358.529 42.951 360.662 50.14 372.591 53.3L379.227 55.196C383.888 56.618 386.1 58.751 386.1 61.753C386.1 65.624 382.861 68.31 377.963 68.31C372.907 68.31 369.115 65.071 369.036 61.2H358.055C358.055 70.759 366.034 77.948 377.647 77.948ZM418.097 55.117H438.4V45.242H418.097V32.286H441.244V22.569H407.116V77H441.955V67.283H418.097V55.117Z" fill="black"/>
</svg>
