<svg width="55" height="55" viewBox="0 0 55 55" fill="none" xmlns="http://www.w3.org/2000/svg">
<path d="M35.6237 48C30.3297 48 27.7397 44.2575 27.2138 43.4843C25.6512 45.042 23.2922 48 19.0431 48C14.1363 48 10 44.2438 10 38.1538V17.8461C10 11.7423 14.1431 8 19.0431 8C23.9431 8 28.0862 11.9747 28.0862 17.7534C29.0428 17.4089 30.0579 17.2304 31.1015 17.2304C36.1496 17.2304 40.1445 21.4223 40.1445 26.4609C40.1445 27.8734 39.881 29.1295 39.3048 30.3331C42.5061 31.7858 44.6667 35.0549 44.6667 38.7694C44.6667 43.8593 40.6094 48 35.6237 48ZM29.4002 41.2528C30.7006 43.5591 32.8897 44.9229 35.6237 44.9229C38.9474 44.9229 41.6529 42.1617 41.6529 38.7694C41.6529 36.0856 39.9625 33.7503 37.5302 32.9285L29.4002 41.254V41.2528ZM19.0445 11.0768C16.0441 11.0768 13.0153 13.17 13.0153 17.8461V38.1538C13.0153 42.8298 16.0428 44.9229 19.0445 44.9229C21.4265 44.9229 22.7432 43.6959 24.8671 41.528L25.8074 40.5678C25.3223 39.0919 25.0723 37.4538 25.0723 35.6913V17.8447C25.0723 13.1686 22.0448 11.0754 19.0431 11.0754L19.0445 11.0768ZM28.0876 21.129V35.6927C28.0876 36.5172 28.1555 37.3016 28.2846 38.0404L34.837 31.3528C36.7407 29.4104 37.1307 27.9923 37.1307 26.4622C37.1307 23.1931 34.557 20.3086 31.1015 20.3086C30.0266 20.3086 28.998 20.5908 28.0876 21.1304V21.129Z" fill="#364040"/>
</svg>
