<svg width="55" height="55" viewBox="0 0 55 55" fill="none" xmlns="http://www.w3.org/2000/svg">
<path d="M37.65 8C36.8099 8 36.4459 8.52813 36.1437 9.0725C36.1437 9.0725 24.0293 30.5615 23.6279 31.2651C23.6523 31.3041 31.6213 45.9275 31.6213 45.9275C31.8975 46.428 32.3298 47 33.1927 47H38.8054C39.1483 47 39.4148 46.8733 39.5578 46.6425C39.7024 46.3971 39.7024 46.0802 39.5432 45.7715L31.6148 31.283C31.6083 31.2733 31.6083 31.257 31.6148 31.2472L44.0704 9.2285C44.2248 8.91812 44.228 8.59962 44.0802 8.35912C43.9355 8.12675 43.6723 8 43.3343 8H37.65ZM14.0225 15.7025C13.6797 15.7025 13.3969 15.8227 13.2539 16.0535C13.1077 16.2956 13.1272 16.6044 13.2864 16.9164L17.0889 23.4976C17.0954 23.5139 17.0954 23.5236 17.0889 23.5317L11.117 34.0829C10.9562 34.3884 10.9659 34.702 11.117 34.9425C11.2552 35.1733 11.5054 35.3227 11.8483 35.3227H17.4724C18.3142 35.3227 18.7172 34.7572 19.008 34.2389L25.0758 23.4993L21.2115 16.7474C20.932 16.2355 20.5063 15.6765 19.6483 15.6765H14.0225V15.7025Z" fill="#364040"/>
</svg>
