<svg width="55" height="55" viewBox="0 0 55 55" fill="none" xmlns="http://www.w3.org/2000/svg">
<path fill-rule="evenodd" clip-rule="evenodd" d="M45.4974 31.5354C45.4974 35.0736 42.5981 37.1433 38.9218 37.1433C35.115 37.1433 32.2157 35.0707 32.2157 31.5787C32.2157 28.3441 34.941 25.7974 38.7913 25.7974C42.6416 25.7974 45.4974 28.3007 45.4974 31.5354ZM44.0245 18.6372C44.0245 21.7447 41.6877 23.3837 38.7884 23.3837C36.0196 23.3837 33.5958 21.7447 33.5958 18.7239C33.5958 16.1223 35.8021 14.2809 38.7884 14.2809C41.8617 14.2809 44.0245 16.0934 44.0245 18.6372ZM49.9971 31.3215C49.9971 28.0001 48.0923 25.3262 45.4104 24.2885C46.6658 23.3837 48.5677 21.6868 48.5677 18.4204C48.5677 13.6305 43.5925 11 38.7449 11C34.0278 11 29.1395 13.6739 29.1395 18.4637C29.1395 21.6435 31.085 23.3779 32.2099 24.2885C29.5281 25.3667 27.6667 28.0839 27.6667 31.4053C27.6725 37.5307 32.9202 40.7567 38.9218 40.7567C44.8508 40.7567 50 37.4353 50 31.3099L49.9971 31.3215ZM23.7324 32.9518C23.7324 27.9481 19.2327 25.8321 14.8634 25.7482C17.2437 23.5918 21.7869 19.1922 21.7869 19.1922V16.1338C21.7869 15.917 21.6565 15.7899 21.3114 15.7899H5.432C5.08698 15.7899 5 15.9199 5 16.1772V18.7788C5 19.0679 5.13047 19.2095 5.47549 19.2095H16.8987L9.58379 26.1847L10.5782 28.3412C15.7274 28.3412 19.1457 29.8068 19.1457 33.6485C19.1457 38.1782 13.608 40.4213 6.03505 40.4213C5.74512 40.4213 5.60305 40.5081 5.60305 40.8521V43.6127C5.60305 43.9017 5.69003 44 6.07854 44C16.9393 44 23.7324 40.1612 23.7324 32.9547V32.9518Z" fill="#364040"/>
</svg>
