<svg width="55" height="55" viewBox="0 0 55 55" fill="none" xmlns="http://www.w3.org/2000/svg">
<g clip-path="url(#clip0_1519_142)">
<path d="M39.2181 55.125C31.7352 55.125 28.0744 49.9674 27.3311 48.9018C25.1223 51.0486 21.788 55.125 15.7821 55.125C8.84653 55.125 3 49.9484 3 41.5558V13.5691C3 5.1573 8.85612 0 15.7821 0C22.708 0 28.5642 5.47761 28.5642 13.4414C29.9163 12.9666 31.351 12.7207 32.8261 12.7207C39.9614 12.7207 45.6081 18.4976 45.6081 25.4414C45.6081 27.388 45.2356 29.1191 44.4212 30.7779C48.9462 32.7798 52 37.285 52 42.4041C52 49.4186 46.2652 55.125 39.2181 55.125ZM30.4214 45.8266C32.2595 49.0049 35.3537 50.8844 39.2181 50.8844C43.9161 50.8844 47.7402 47.079 47.7402 42.4041C47.7402 38.7054 45.3508 35.4871 41.9128 34.3546L30.4214 45.8282V45.8266ZM15.784 4.24025C11.5432 4.24025 7.26196 7.1249 7.26196 13.5691V41.5558C7.26196 47.9999 11.5412 50.8844 15.784 50.8844C19.1509 50.8844 21.0121 49.1934 24.0141 46.2057L25.3432 44.8826C24.6575 42.8486 24.3041 40.591 24.3041 38.162V13.5672C24.3041 7.12296 20.0248 4.23831 15.7821 4.23831L15.784 4.24025ZM28.5661 18.0934V38.1639C28.5661 39.3003 28.6621 40.3813 28.8446 41.3994L38.1061 32.183C40.7969 29.5062 41.3481 27.5519 41.3481 25.4433C41.3481 20.938 37.7104 16.9628 32.8261 16.9628C31.3069 16.9628 29.8529 17.3518 28.5661 18.0953V18.0934Z" fill="black"/>
</g>
<defs>
<clipPath id="clip0_1519_142">
<rect width="55" height="55" fill="white"/>
</clipPath>
</defs>
</svg>
