<svg width="55" height="55" viewBox="0 0 55 55" fill="none" xmlns="http://www.w3.org/2000/svg">
<g clip-path="url(#clip0_1209_144)">
<path d="M27.5 0C20.0292 0 19.0965 0.034375 16.1631 0.165C13.2344 0.3025 11.2406 0.763125 9.4875 1.44375C7.67938 2.145 6.14396 3.08687 4.61542 4.61542C3.08687 6.14396 2.14271 7.67708 1.44375 9.4875C0.763125 11.2406 0.300208 13.2344 0.165 16.1631C0.0275 19.0965 0 20.0292 0 27.5C0 34.9708 0.034375 35.9035 0.165 38.8369C0.3025 41.7633 0.763125 43.7594 1.44375 45.5125C2.145 47.3183 3.08687 48.856 4.61542 50.3846C6.14396 51.9108 7.67708 52.8573 9.4875 53.5563C11.2429 54.2346 13.2367 54.6998 16.1631 54.835C19.0965 54.9725 20.0292 55 27.5 55C34.9708 55 35.9035 54.9656 38.8369 54.835C41.7633 54.6975 43.7594 54.2346 45.5125 53.5563C47.3183 52.855 48.856 51.9108 50.3846 50.3846C51.9108 48.856 52.8573 47.3252 53.5563 45.5125C54.2346 43.7594 54.6998 41.7633 54.835 38.8369C54.9725 35.9035 55 34.9708 55 27.5C55 20.0292 54.9656 19.0965 54.835 16.1631C54.6975 13.2367 54.2346 11.2383 53.5563 9.4875C52.855 7.67938 51.9108 6.14396 50.3846 4.61542C48.856 3.08687 47.3252 2.14271 45.5125 1.44375C43.7594 0.763125 41.7633 0.300208 38.8369 0.165C35.9035 0.0275 34.9708 0 27.5 0ZM27.5 4.95C34.8402 4.95 35.7156 4.98667 38.6146 5.11271C41.2958 5.23875 42.751 5.68333 43.7181 6.06375C45.006 6.56104 45.9181 7.15688 46.8852 8.11708C47.8454 9.07958 48.4413 9.99396 48.9385 11.2819C49.3144 12.249 49.7635 13.7042 49.885 16.3854C50.0156 19.2867 50.0454 20.1575 50.0454 27.5C50.0454 34.8425 50.011 35.7156 49.8758 38.6146C49.736 41.2958 49.2892 42.751 48.911 43.7181C48.3977 45.006 47.8133 45.9181 46.8508 46.8852C45.8906 47.8454 44.9625 48.4413 43.6883 48.9385C42.7258 49.3144 41.2477 49.7635 38.5665 49.885C35.6469 50.0156 34.7875 50.0454 27.4313 50.0454C20.0727 50.0454 19.2133 50.011 16.296 49.8758C13.6125 49.736 12.1344 49.2892 11.1719 48.911C9.86792 48.3977 8.97188 47.8133 8.01167 46.8508C7.04688 45.8906 6.43042 44.9625 5.94917 43.6883C5.57104 42.7258 5.12646 41.2477 4.98667 38.5665C4.88354 35.679 4.84688 34.7875 4.84688 27.4656C4.84688 20.1415 4.88354 19.2477 4.98667 16.3258C5.12646 13.6446 5.57104 12.1688 5.94917 11.2063C6.43042 9.9 7.04688 9.00625 8.01167 8.04146C8.97188 7.08125 9.86792 6.4625 11.1719 5.98354C12.1344 5.60313 13.5804 5.15625 16.2617 5.01875C19.1835 4.91563 20.0429 4.88125 27.3969 4.88125L27.5 4.95V4.95ZM27.5 13.3788C19.6969 13.3788 13.3788 19.7038 13.3788 27.5C13.3788 35.3031 19.7038 41.6213 27.5 41.6213C35.3031 41.6213 41.6213 35.2963 41.6213 27.5C41.6213 19.6969 35.2963 13.3788 27.5 13.3788ZM27.5 36.6667C22.4354 36.6667 18.3333 32.5646 18.3333 27.5C18.3333 22.4354 22.4354 18.3333 27.5 18.3333C32.5646 18.3333 36.6667 22.4354 36.6667 27.5C36.6667 32.5646 32.5646 36.6667 27.5 36.6667ZM45.4804 12.8219C45.4804 14.6438 44 16.1219 42.1804 16.1219C40.3585 16.1219 38.8804 14.6415 38.8804 12.8219C38.8804 11.0023 40.3608 9.52417 42.1804 9.52417C43.9977 9.52188 45.4804 11.0023 45.4804 12.8219Z" fill="black"/>
</g>
<defs>
<clipPath id="clip0_1209_144">
<rect width="55" height="55" fill="white"/>
</clipPath>
</defs>
</svg>
