<svg width="55" height="55" viewBox="0 0 55 55" fill="none" xmlns="http://www.w3.org/2000/svg">
<path d="M27.5 8C22.2025 8 21.5411 8.02437 19.4611 8.117C17.3844 8.2145 15.9706 8.54112 14.7275 9.02375C13.4454 9.521 12.3566 10.1889 11.2727 11.2727C10.1889 12.3566 9.51937 13.4437 9.02375 14.7275C8.54112 15.9706 8.21287 17.3844 8.117 19.4611C8.0195 21.5411 8 22.2025 8 27.5C8 32.7975 8.02437 33.4589 8.117 35.5389C8.2145 37.614 8.54112 39.0294 9.02375 40.2725C9.521 41.553 10.1889 42.6434 11.2727 43.7272C12.3566 44.8095 13.4437 45.4806 14.7275 45.9762C15.9722 46.4573 17.386 46.7871 19.4611 46.883C21.5411 46.9805 22.2025 47 27.5 47C32.7975 47 33.4589 46.9756 35.5389 46.883C37.614 46.7855 39.0294 46.4573 40.2725 45.9762C41.553 45.479 42.6434 44.8095 43.7272 43.7272C44.8095 42.6434 45.4806 41.5579 45.9762 40.2725C46.4573 39.0294 46.7871 37.614 46.883 35.5389C46.9805 33.4589 47 32.7975 47 27.5C47 22.2025 46.9756 21.5411 46.883 19.4611C46.7855 17.386 46.4573 15.969 45.9762 14.7275C45.479 13.4454 44.8095 12.3566 43.7272 11.2727C42.6434 10.1889 41.5579 9.51937 40.2725 9.02375C39.0294 8.54112 37.614 8.21287 35.5389 8.117C33.4589 8.0195 32.7975 8 27.5 8ZM27.5 11.51C32.7049 11.51 33.3256 11.536 35.3813 11.6254C37.2825 11.7147 38.3144 12.03 39.0001 12.2997C39.9134 12.6524 40.5601 13.0749 41.2459 13.7558C41.9268 14.4383 42.3493 15.0866 42.7019 15.9999C42.9684 16.6856 43.2869 17.7175 43.373 19.6188C43.4656 21.676 43.4867 22.2935 43.4867 27.5C43.4867 32.7065 43.4624 33.3256 43.3665 35.3813C43.2674 37.2825 42.9505 38.3144 42.6824 39.0001C42.3184 39.9134 41.904 40.5601 41.2215 41.2459C40.5406 41.9268 39.8825 42.3493 38.979 42.7019C38.2965 42.9684 37.2484 43.2869 35.3471 43.373C33.2769 43.4656 32.6675 43.4867 27.4513 43.4867C22.2334 43.4867 21.624 43.4624 19.5554 43.3665C17.6525 43.2674 16.6044 42.9505 15.9219 42.6824C14.9973 42.3184 14.3619 41.904 13.681 41.2215C12.9969 40.5406 12.5598 39.8825 12.2185 38.979C11.9504 38.2965 11.6351 37.2484 11.536 35.3471C11.4629 33.2996 11.4369 32.6675 11.4369 27.4756C11.4369 22.2821 11.4629 21.6484 11.536 19.5765C11.6351 17.6753 11.9504 16.6287 12.2185 15.9462C12.5598 15.02 12.9969 14.3863 13.681 13.7021C14.3619 13.0213 14.9973 12.5825 15.9219 12.2429C16.6044 11.9731 17.6298 11.6562 19.531 11.5588C21.6029 11.4856 22.2122 11.4613 27.4269 11.4613L27.5 11.51ZM27.5 17.4867C21.9669 17.4867 17.4867 21.9718 17.4867 27.5C17.4867 33.0331 21.9718 37.5133 27.5 37.5133C33.0331 37.5133 37.5133 33.0282 37.5133 27.5C37.5133 21.9669 33.0282 17.4867 27.5 17.4867ZM27.5 34C23.9087 34 21 31.0912 21 27.5C21 23.9087 23.9087 21 27.5 21C31.0912 21 34 23.9087 34 27.5C34 31.0912 31.0912 34 27.5 34ZM40.2498 17.0919C40.2498 18.3837 39.2 19.4319 37.9097 19.4319C36.6179 19.4319 35.5697 18.3821 35.5697 17.0919C35.5697 15.8016 36.6195 14.7535 37.9097 14.7535C39.1984 14.7519 40.2498 15.8016 40.2498 17.0919Z" fill="#364040"/>
</svg>
