<svg width="55" height="55" viewBox="0 0 55 55" fill="none" xmlns="http://www.w3.org/2000/svg">
<path fill-rule="evenodd" clip-rule="evenodd" d="M38.1609 15.0104C35.2873 12.2833 31.6551 10.8854 27.5862 10.8854C20.3908 10.8854 14.2989 15.7207 12.1149 22.2519V22.2524C11.5632 23.9024 11.2414 25.6669 11.2414 27.5003C11.2414 29.3335 11.5402 31.0981 12.1149 32.748H12.1149C14.2988 39.2792 20.3908 44.1146 27.5862 44.1146C31.3103 44.1146 34.4597 43.1063 36.9425 41.4563C39.8391 39.5084 41.7931 36.6439 42.4598 33.2522H27.5862V22.9168H53.5632C53.8391 24.5897 54 26.3085 54 28.1189C54 36.4834 51.0115 43.5417 45.8161 48.3313C41.2643 52.525 35.0345 55 27.5862 55C16.8046 55 7.49432 48.8126 2.96556 39.8294L2.96552 39.8294C1.08046 36.1169 0 31.9461 0 27.5003C0 23.0545 1.08046 18.8836 2.96552 15.1712H2.96598L2.96549 15.1708C7.49422 6.18748 16.8046 0 27.5862 0C35.0345 0 41.2643 2.72708 46.023 7.17289L38.1609 15.0104Z" fill="black"/>
</svg>
