<svg width="55" height="55" viewBox="0 0 55 55" fill="none" xmlns="http://www.w3.org/2000/svg">
<path fill-rule="evenodd" clip-rule="evenodd" d="M35.6528 18.9166C33.5705 16.9333 30.9385 15.9166 27.99 15.9166C22.776 15.9166 18.3615 19.4333 16.7789 24.1832V24.1836C16.3791 25.3835 16.1459 26.6669 16.1459 28.0002C16.1459 29.3335 16.3625 30.6168 16.7789 31.8167H16.7789C18.3615 36.5667 22.7759 40.0834 27.99 40.0834C30.6886 40.0834 32.9708 39.35 34.77 38.1501C36.8689 36.7334 38.2849 34.6501 38.768 32.1834H27.99V24.6668H46.8139C47.0138 25.8834 47.1304 27.1334 47.1304 28.4501C47.1304 34.5334 44.9649 39.6667 41.2001 43.15C37.9017 46.2 33.3873 48 27.99 48C20.1773 48 13.4307 43.5001 10.149 36.9668L10.1489 36.9668C8.78294 34.2668 8 31.2335 8 28.0002C8 24.7669 8.78294 21.7336 10.1489 19.0336H10.1493L10.1489 19.0333C13.4306 12.5 20.1772 8 27.99 8C33.3873 8 37.9017 9.98333 41.35 13.2166L35.6528 18.9166Z" fill="#364040"/>
</svg>
