<svg width="55" height="55" viewBox="0 0 55 55" fill="none" xmlns="http://www.w3.org/2000/svg">
<path d="M49.8565 16.1539C49.5919 15.1572 49.0701 14.2476 48.3434 13.516C47.6166 12.7844 46.7104 12.2567 45.7154 11.9855C42.0642 11 27.4181 11 27.4181 11C27.4181 11 12.772 11 9.11881 11.9855C8.12433 12.2571 7.21861 12.7851 6.49223 13.5166C5.76584 14.2481 5.24426 15.1576 4.97966 16.1539C4 19.8306 4 27.5 4 27.5C4 27.5 4 35.1694 4.97966 38.8461C5.24425 39.8428 5.76607 40.7524 6.49284 41.484C7.21961 42.2156 8.12584 42.7433 9.12076 43.0145C12.772 44 27.4181 44 27.4181 44C27.4181 44 42.0642 44 45.7174 43.0145C46.7124 42.7435 47.6187 42.2158 48.3455 41.4842C49.0723 40.7526 49.5941 39.8428 49.8585 38.8461C50.8362 35.1694 50.8362 27.5 50.8362 27.5C50.8362 27.5 50.8362 19.8306 49.8565 16.1539ZM22.6271 34.463V20.537L34.869 27.5L22.6271 34.463Z" fill="#364040"/>
</svg>
