<svg width="55" height="55" viewBox="0 0 55 55" fill="none" xmlns="http://www.w3.org/2000/svg">
<g clip-path="url(#clip0_1209_140)">
<path d="M46.8577 46.8692H38.7131V34.1069C38.7131 31.0635 38.6513 27.1471 34.469 27.1471C30.2225 27.1471 29.574 30.4585 29.574 33.8823V46.8692H21.4294V20.625H29.2531V24.2023H29.3585C30.4517 22.1398 33.11 19.9627 37.0815 19.9627C45.3338 19.9627 46.86 25.394 46.86 32.4638V46.8692H46.8577ZM12.2306 17.034C9.60896 17.034 7.50292 14.9119 7.50292 12.3017C7.50292 9.69375 9.61125 7.57396 12.2306 7.57396C14.8431 7.57396 16.9606 9.69375 16.9606 12.3017C16.9606 14.9119 14.8408 17.034 12.2306 17.034ZM16.3144 46.8692H8.14688V20.625H16.3144V46.8692ZM50.9323 0H4.05854C1.815 0 0 1.77375 0 3.96229V51.0377C0 53.2285 1.815 55 4.05854 55H50.9254C53.1667 55 55 53.2285 55 51.0377V3.96229C55 1.77375 53.1667 0 50.9254 0H50.9323Z" fill="black"/>
</g>
<defs>
<clipPath id="clip0_1209_140">
<rect width="55" height="55" fill="white"/>
</clipPath>
</defs>
</svg>
