<svg width="55" height="55" viewBox="0 0 55 55" fill="none" xmlns="http://www.w3.org/2000/svg">
<path d="M41.0783 42.0867H35.155V32.805C35.155 30.5917 35.11 27.7433 32.0683 27.7433C28.98 27.7433 28.5083 30.1517 28.5083 32.6417V42.0867H22.585V23H28.275V25.6017H28.3517C29.1467 24.1017 31.08 22.5183 33.9683 22.5183C39.97 22.5183 41.08 26.4683 41.08 31.61V42.0867H41.0783ZM15.895 20.3883C13.9883 20.3883 12.4567 18.845 12.4567 16.9467C12.4567 15.05 13.99 13.5083 15.895 13.5083C17.795 13.5083 19.335 15.05 19.335 16.9467C19.335 18.845 17.7933 20.3883 15.895 20.3883ZM18.865 42.0867H12.925V23H18.865V42.0867ZM44.0417 8H9.95167C8.32 8 7 9.29 7 10.8817V45.1183C7 46.7117 8.32 48 9.95167 48H44.0367C45.6667 48 47 46.7117 47 45.1183V10.8817C47 9.29 45.6667 8 44.0367 8H44.0417Z" fill="#364040"/>
</svg>
