<svg width="55" height="55" viewBox="0 0 55 55" fill="none" xmlns="http://www.w3.org/2000/svg">
<path d="M41.5834 0C40.3986 0 39.8852 0.744792 39.459 1.5125C39.459 1.5125 22.3746 31.8175 21.8086 32.8098C21.843 32.8648 33.0813 53.4875 33.0813 53.4875C33.4709 54.1933 34.0805 55 35.2973 55H43.2127C43.6963 55 44.0721 54.8213 44.2738 54.4958C44.4777 54.1498 44.4777 53.7029 44.2532 53.2675L33.0721 32.835C33.063 32.8213 33.063 32.7983 33.0721 32.7846L50.6377 1.7325C50.8555 1.29479 50.86 0.845625 50.6515 0.506458C50.4475 0.17875 50.0763 0 49.5996 0H41.5834ZM8.26254 10.8625C7.779 10.8625 7.38025 11.0321 7.17858 11.3575C6.97233 11.699 6.99983 12.1344 7.22441 12.5744L12.5869 21.8556C12.5961 21.8785 12.5961 21.8923 12.5869 21.9037L4.16504 36.7835C3.93817 37.2144 3.95192 37.6567 4.16504 37.9958C4.35983 38.3213 4.71275 38.5321 5.19629 38.5321H13.1277C14.3148 38.5321 14.8832 37.7346 15.2934 37.0035L23.8505 21.8579L18.4009 12.336C18.0067 11.6142 17.4063 10.8258 16.1963 10.8258H8.26254V10.8625V10.8625Z" fill="black"/>
</svg>
