<svg width="55" height="55" viewBox="0 0 55 55" fill="none" xmlns="http://www.w3.org/2000/svg">
<g clip-path="url(#clip0_1209_146)">
<path d="M55 27.5C55 12.3131 42.6869 0 27.5 0C12.3131 0 0 12.3131 0 27.5C0 41.2271 10.0558 52.6029 23.2031 54.6654V35.4498H16.2204V27.4977H23.2031V21.4431C23.2031 14.5521 27.3098 10.7433 33.5913 10.7433C36.5979 10.7433 39.7467 11.2819 39.7467 11.2819V18.0492H36.2771C32.8602 18.0492 31.7946 20.169 31.7946 22.3437V27.5H39.4213L38.2021 35.4521H31.7946V54.6677C44.9442 52.6029 55 41.2248 55 27.5Z" fill="black"/>
</g>
<defs>
<clipPath id="clip0_1209_146">
<rect width="55" height="55" fill="white"/>
</clipPath>
</defs>
</svg>
