<svg width="2115" height="895" viewBox="0 0 2115 895" fill="none" xmlns="http://www.w3.org/2000/svg">
<path d="M938.18 149.968H685V550.032H776.168V392.677H904.5V313.71H776.168V229.516H938.18V149.968Z" fill="#E00047"/>
<path d="M968.553 149.968V550.032H1126.5C1242.06 550.032 1308.84 464.097 1308.84 350.871C1308.84 237.065 1242.06 149.968 1126.5 149.968H968.553ZM1059.72 470.484V229.516H1126.5C1186.31 229.516 1217.09 288.161 1217.09 350.871C1217.09 413 1186.31 470.484 1126.5 470.484H1059.72Z" fill="#E00047"/>
<path d="M1565.28 336.355C1611.15 323 1621.6 281.194 1621.6 253.323C1621.6 194.097 1574.57 149.968 1501.4 149.968H1339.39V550.032H1513.01C1607.09 550.032 1642.51 489.645 1642.51 435.064C1642.51 389.194 1618.12 343.903 1565.28 336.355ZM1530.43 267.839C1530.43 292.226 1515.92 306.161 1494.43 306.161H1430.56V229.516H1495.01C1519.98 229.516 1530.43 247.516 1530.43 267.839ZM1430.56 470.484V381.065H1501.98C1536.24 381.065 1550.76 404.871 1550.76 425.774C1550.76 448.419 1534.5 470.484 1501.98 470.484H1430.56Z" fill="#E00047"/>
<path d="M1817.51 557C1890.67 557 1965 518.677 1965 432.742C1965 360.161 1906.93 331.129 1850.02 313.71L1808.21 300.355C1771.05 289.903 1768.73 271.903 1768.73 263.774C1768.73 241.71 1787.31 222.548 1815.76 222.548C1847.12 222.548 1861.64 242.871 1861.64 266.677H1952.81C1952.81 188.871 1894.16 143 1817.51 143C1737.95 143 1676.4 193.516 1676.4 265.516C1676.4 303.258 1693.24 357.258 1781.5 381.065L1829.12 395.581C1864.54 407.194 1873.25 421.71 1873.25 437.387C1873.25 463.516 1850.6 478.613 1820.99 478.613C1789.63 478.613 1764.08 458.871 1764.08 433.323H1672.91C1672.91 507.065 1732.14 557 1817.51 557Z" fill="#E00047"/>
<path d="M183.563 745.572C189.982 745.572 194.043 743.869 196.532 741.511L193.257 731.162C192.209 732.341 189.72 733.389 187.1 733.389C183.17 733.389 181.074 730.245 181.074 725.922V692.779H193.912V680.727H181.074V663.435H167.319V680.727H156.839V692.779H167.319V729.328C167.319 739.808 172.952 745.572 183.563 745.572ZM262.993 744V699.198C262.993 686.229 256.181 679.155 242.557 679.155C232.601 679.155 224.348 684.395 220.156 689.373V656.623H206.401V744H220.156V699.853C223.431 695.53 229.457 691.338 236.4 691.338C244.129 691.338 249.238 694.351 249.238 704.176V744H262.993ZM276.926 712.298C276.926 732.341 291.074 745.572 310.069 745.572C320.156 745.572 329.457 742.428 335.745 736.402L329.457 727.363C325.003 731.817 317.667 734.306 311.51 734.306C299.589 734.306 292.384 726.446 291.336 716.883H340.199V713.608C340.199 693.696 328.016 679.155 309.021 679.155C290.288 679.155 276.926 693.958 276.926 712.298ZM309.021 690.421C321.466 690.421 326.575 699.722 326.837 707.189H291.205C291.86 699.46 297.231 690.421 309.021 690.421ZM383.491 712.298C383.491 731.555 396.984 745.572 416.241 745.572C428.555 745.572 436.022 740.332 440.476 734.306L431.437 725.922C427.9 730.769 423.053 733.389 416.896 733.389C405.368 733.389 397.77 724.612 397.77 712.298C397.77 699.984 405.368 691.338 416.896 691.338C423.053 691.338 427.9 693.827 431.437 698.805L440.476 690.421C436.022 684.395 428.555 679.155 416.241 679.155C396.984 679.155 383.491 693.172 383.491 712.298ZM481.095 745.572C501.4 745.572 513.714 730.507 513.714 712.298C513.714 694.22 501.4 679.155 481.095 679.155C461.052 679.155 448.607 694.22 448.607 712.298C448.607 730.507 461.052 745.572 481.095 745.572ZM481.095 733.389C469.436 733.389 462.886 723.564 462.886 712.298C462.886 701.163 469.436 691.338 481.095 691.338C492.885 691.338 499.435 701.163 499.435 712.298C499.435 723.564 492.885 733.389 481.095 733.389ZM618.939 744V698.281C618.939 685.443 612.389 679.155 600.73 679.155C591.298 679.155 582.914 685.05 579.246 690.814C577.15 683.871 571.386 679.155 561.954 679.155C552.391 679.155 544.007 685.443 541.387 689.373V680.727H527.632V744H541.387V699.853C544.269 695.661 549.902 691.338 555.928 691.338C563.395 691.338 566.408 695.923 566.408 702.735V744H580.163V699.722C582.914 695.661 588.678 691.338 594.835 691.338C602.171 691.338 605.184 695.923 605.184 702.735V744H618.939ZM650.511 735.223C655.62 742.035 662.825 745.572 670.816 745.572C687.191 745.572 698.85 733.127 698.85 712.298C698.85 691.469 687.191 679.155 670.816 679.155C662.563 679.155 655.227 683.085 650.511 689.373V680.727H636.756V768.104H650.511V735.223ZM684.571 712.298C684.571 724.612 677.628 733.389 666.755 733.389C660.336 733.389 653.524 729.459 650.511 724.874V699.853C653.524 695.137 660.336 691.338 666.755 691.338C677.628 691.338 684.571 700.115 684.571 712.298ZM708.816 712.298C708.816 732.341 722.964 745.572 741.959 745.572C752.046 745.572 761.347 742.428 767.635 736.402L761.347 727.363C756.893 731.817 749.557 734.306 743.4 734.306C731.479 734.306 724.274 726.446 723.226 716.883H772.089V713.608C772.089 693.696 759.906 679.155 740.911 679.155C722.178 679.155 708.816 693.958 708.816 712.298ZM740.911 690.421C753.356 690.421 758.465 699.722 758.727 707.189H723.095C723.75 699.46 729.121 690.421 740.911 690.421ZM804.661 745.572C811.08 745.572 815.141 743.869 817.63 741.511L814.355 731.162C813.307 732.341 810.818 733.389 808.198 733.389C804.268 733.389 802.172 730.245 802.172 725.922V692.779H815.01V680.727H802.172V663.435H788.417V680.727H777.937V692.779H788.417V729.328C788.417 739.808 794.05 745.572 804.661 745.572ZM823.569 712.298C823.569 732.341 837.717 745.572 856.712 745.572C866.799 745.572 876.1 742.428 882.388 736.402L876.1 727.363C871.646 731.817 864.31 734.306 858.153 734.306C846.232 734.306 839.027 726.446 837.979 716.883H886.842V713.608C886.842 693.696 874.659 679.155 855.664 679.155C836.931 679.155 823.569 693.958 823.569 712.298ZM855.664 690.421C868.109 690.421 873.218 699.722 873.48 707.189H837.848C838.503 699.46 843.874 690.421 855.664 690.421ZM956.88 744V699.46C956.88 686.491 950.068 679.155 936.444 679.155C926.488 679.155 918.366 684.395 914.174 689.373V680.727H900.419V744H914.174V699.853C917.318 695.53 923.344 691.338 930.418 691.338C938.147 691.338 943.125 694.613 943.125 704.438V744H956.88ZM970.816 712.298C970.816 731.555 984.309 745.572 1003.57 745.572C1015.88 745.572 1023.35 740.332 1027.8 734.306L1018.76 725.922C1015.23 730.769 1010.38 733.389 1004.22 733.389C992.693 733.389 985.095 724.612 985.095 712.298C985.095 699.984 992.693 691.338 1004.22 691.338C1010.38 691.338 1015.23 693.827 1018.76 698.805L1027.8 690.421C1023.35 684.395 1015.88 679.155 1003.57 679.155C984.309 679.155 970.816 693.172 970.816 712.298ZM1035.93 712.298C1035.93 732.341 1050.08 745.572 1069.08 745.572C1079.16 745.572 1088.46 742.428 1094.75 736.402L1088.46 727.363C1084.01 731.817 1076.67 734.306 1070.52 734.306C1058.6 734.306 1051.39 726.446 1050.34 716.883H1099.21V713.608C1099.21 693.696 1087.02 679.155 1068.03 679.155C1049.29 679.155 1035.93 693.958 1035.93 712.298ZM1068.03 690.421C1080.47 690.421 1085.58 699.722 1085.84 707.189H1050.21C1050.87 699.46 1056.24 690.421 1068.03 690.421ZM1153.24 670.247C1157.96 670.247 1161.76 666.448 1161.76 661.732C1161.76 657.016 1157.96 653.217 1153.24 653.217C1148.66 653.217 1144.73 657.016 1144.73 661.732C1144.73 666.448 1148.66 670.247 1153.24 670.247ZM1160.18 744V680.727H1146.43V744H1160.18ZM1234.49 744V699.46C1234.49 686.491 1227.68 679.155 1214.05 679.155C1204.1 679.155 1195.97 684.395 1191.78 689.373V680.727H1178.03V744H1191.78V699.853C1194.93 695.53 1200.95 691.338 1208.03 691.338C1215.75 691.338 1220.73 694.613 1220.73 704.438V744H1234.49ZM1315.87 692.779V680.727H1303.03V677.19C1303.03 670.116 1306.44 666.579 1311.81 666.579C1313.77 666.579 1315.74 666.972 1317.31 667.889L1320.32 657.802C1317.57 656.23 1313.64 655.313 1309.32 655.313C1297.66 655.313 1289.27 663.042 1289.27 677.19V680.727H1278.79V692.779H1289.27V744H1303.03V692.779H1315.87ZM1354.86 745.572C1375.16 745.572 1387.47 730.507 1387.47 712.298C1387.47 694.22 1375.16 679.155 1354.86 679.155C1334.81 679.155 1322.37 694.22 1322.37 712.298C1322.37 730.507 1334.81 745.572 1354.86 745.572ZM1354.86 733.389C1343.2 733.389 1336.65 723.564 1336.65 712.298C1336.65 701.163 1343.2 691.338 1354.86 691.338C1366.65 691.338 1373.2 701.163 1373.2 712.298C1373.2 723.564 1366.65 733.389 1354.86 733.389ZM1429.95 745.572C1450.25 745.572 1462.57 730.507 1462.57 712.298C1462.57 694.22 1450.25 679.155 1429.95 679.155C1409.91 679.155 1397.46 694.22 1397.46 712.298C1397.46 730.507 1409.91 745.572 1429.95 745.572ZM1429.95 733.389C1418.29 733.389 1411.74 723.564 1411.74 712.298C1411.74 701.163 1418.29 691.338 1429.95 691.338C1441.74 691.338 1448.29 701.163 1448.29 712.298C1448.29 723.564 1441.74 733.389 1429.95 733.389ZM1534.78 744V656.623H1521.03V689.504C1515.92 682.823 1508.58 679.155 1500.72 679.155C1484.35 679.155 1472.56 691.993 1472.56 712.429C1472.56 733.258 1484.48 745.572 1500.72 745.572C1508.84 745.572 1516.18 741.642 1521.03 735.354V744H1534.78ZM1521.03 725.005C1517.88 729.721 1511.2 733.389 1504.65 733.389C1493.78 733.389 1486.84 724.612 1486.84 712.429C1486.84 700.115 1493.78 691.338 1504.65 691.338C1511.2 691.338 1517.88 695.137 1521.03 699.853V725.005ZM1547.1 735.747C1553.65 742.166 1563.48 745.572 1574.22 745.572C1591.25 745.572 1600.55 737.057 1600.55 725.922C1600.55 710.988 1587.06 707.844 1576.05 705.486C1568.59 703.783 1562.3 702.08 1562.3 697.233C1562.3 692.779 1566.88 690.159 1574.09 690.159C1581.95 690.159 1589.02 693.434 1592.82 697.757L1598.59 688.063C1592.82 682.954 1584.7 679.155 1573.96 679.155C1557.98 679.155 1549.07 688.063 1549.07 698.412C1549.07 712.56 1562.04 715.442 1572.91 717.8C1580.64 719.503 1587.32 721.468 1587.32 726.97C1587.32 731.686 1583.13 734.699 1574.87 734.699C1566.62 734.699 1557.84 730.376 1553.39 725.791L1547.1 735.747ZM1610.46 712.298C1610.46 732.341 1624.61 745.572 1643.61 745.572C1653.69 745.572 1663 742.428 1669.28 736.402L1663 727.363C1658.54 731.817 1651.21 734.306 1645.05 734.306C1633.13 734.306 1625.92 726.446 1624.87 716.883H1673.74V713.608C1673.74 693.696 1661.55 679.155 1642.56 679.155C1623.83 679.155 1610.46 693.958 1610.46 712.298ZM1642.56 690.421C1655 690.421 1660.11 699.722 1660.38 707.189H1624.74C1625.4 699.46 1630.77 690.421 1642.56 690.421ZM1701.07 744V700.901C1703.82 696.447 1711.55 692.517 1717.31 692.517C1719.02 692.517 1720.46 692.648 1721.64 692.91V679.286C1713.38 679.286 1705.79 684.002 1701.07 690.028V680.727H1687.31V744H1701.07ZM1764.17 744L1789.98 680.727H1775.17L1756.7 728.149L1738.23 680.727H1723.56L1749.37 744H1764.17ZM1805.43 670.247C1810.14 670.247 1813.94 666.448 1813.94 661.732C1813.94 657.016 1810.14 653.217 1805.43 653.217C1800.84 653.217 1796.91 657.016 1796.91 661.732C1796.91 666.448 1800.84 670.247 1805.43 670.247ZM1812.37 744V680.727H1798.61V744H1812.37ZM1826.28 712.298C1826.28 731.555 1839.78 745.572 1859.03 745.572C1871.35 745.572 1878.81 740.332 1883.27 734.306L1874.23 725.922C1870.69 730.769 1865.84 733.389 1859.69 733.389C1848.16 733.389 1840.56 724.612 1840.56 712.298C1840.56 699.984 1848.16 691.338 1859.69 691.338C1865.84 691.338 1870.69 693.827 1874.23 698.805L1883.27 690.421C1878.81 684.395 1871.35 679.155 1859.03 679.155C1839.78 679.155 1826.28 693.172 1826.28 712.298ZM1891.4 712.298C1891.4 732.341 1905.55 745.572 1924.54 745.572C1934.63 745.572 1943.93 742.428 1950.22 736.402L1943.93 727.363C1939.48 731.817 1932.14 734.306 1925.98 734.306C1914.06 734.306 1906.86 726.446 1905.81 716.883H1954.67V713.608C1954.67 693.696 1942.49 679.155 1923.49 679.155C1904.76 679.155 1891.4 693.958 1891.4 712.298ZM1923.49 690.421C1935.94 690.421 1941.05 699.722 1941.31 707.189H1905.68C1906.33 699.46 1911.7 690.421 1923.49 690.421Z" fill="#393F39"/>
<path d="M150 268.519C150 203.063 202.902 150 268.16 150V150V431.481C268.16 496.937 215.258 550 150 550V550V268.519Z" fill="#E00047"/>
<path d="M282.688 150H535.472V150C535.472 215.258 482.213 268.16 416.515 268.16H282.688V150Z" fill="#E00047"/>
<path d="M282.688 282.688H402.785V282.688C402.785 349.015 349.015 402.785 282.688 402.785V402.785V282.688Z" fill="#E00047"/>
</svg>
