<svg width="2115" height="700" viewBox="0 0 2115 700" fill="none" xmlns="http://www.w3.org/2000/svg">
<path d="M938.18 149.968H685V550.032H776.168V392.677H904.5V313.71H776.168V229.516H938.18V149.968Z" fill="black"/>
<path d="M968.553 149.968V550.032H1126.5C1242.06 550.032 1308.84 464.097 1308.84 350.871C1308.84 237.065 1242.06 149.968 1126.5 149.968H968.553ZM1059.72 470.484V229.516H1126.5C1186.31 229.516 1217.09 288.161 1217.09 350.871C1217.09 413 1186.31 470.484 1126.5 470.484H1059.72Z" fill="black"/>
<path d="M1565.28 336.355C1611.15 323 1621.6 281.194 1621.6 253.323C1621.6 194.097 1574.57 149.968 1501.4 149.968H1339.39V550.032H1513.01C1607.09 550.032 1642.51 489.645 1642.51 435.064C1642.51 389.194 1618.12 343.903 1565.28 336.355ZM1530.43 267.839C1530.43 292.226 1515.92 306.161 1494.43 306.161H1430.56V229.516H1495.01C1519.98 229.516 1530.43 247.516 1530.43 267.839ZM1430.56 470.484V381.065H1501.98C1536.24 381.065 1550.76 404.871 1550.76 425.774C1550.76 448.419 1534.5 470.484 1501.98 470.484H1430.56Z" fill="black"/>
<path d="M1817.51 557C1890.67 557 1965 518.677 1965 432.742C1965 360.161 1906.93 331.129 1850.02 313.71L1808.21 300.355C1771.05 289.903 1768.73 271.903 1768.73 263.774C1768.73 241.71 1787.31 222.548 1815.76 222.548C1847.12 222.548 1861.64 242.871 1861.64 266.677H1952.81C1952.81 188.871 1894.16 143 1817.51 143C1737.95 143 1676.4 193.516 1676.4 265.516C1676.4 303.258 1693.24 357.258 1781.5 381.065L1829.12 395.581C1864.54 407.194 1873.25 421.71 1873.25 437.387C1873.25 463.516 1850.6 478.613 1820.99 478.613C1789.63 478.613 1764.08 458.871 1764.08 433.323H1672.91C1672.91 507.065 1732.14 557 1817.51 557Z" fill="black"/>
<path d="M150 268.519C150 203.063 202.902 150 268.16 150V150V431.481C268.16 496.937 215.258 550 150 550V550V268.519Z" fill="black"/>
<path d="M282.688 150H535.472V150C535.472 215.258 482.213 268.16 416.515 268.16H282.688V150Z" fill="black"/>
<path d="M282.688 282.688H402.785V282.688C402.785 349.015 349.015 402.785 282.688 402.785V402.785V282.688Z" fill="black"/>
</svg>
