<svg width="446" height="96" viewBox="0 0 446 96" fill="none" xmlns="http://www.w3.org/2000/svg">
<path d="M17.9884 54.84H38.5484V44.84H17.9884V31.72H41.4284V21.88H6.86844V77H42.1484V67.16H17.9884V54.84ZM63.9259 77V21.88H52.8059V77H63.9259ZM101.977 77.96C111.337 77.96 119.497 73.48 124.457 66.52L115.977 60.36C112.857 64.76 108.217 67.48 102.297 67.48C92.2972 67.48 85.0972 59.24 85.0972 49.4C85.0972 39.56 92.3772 31.4 102.377 31.4C108.217 31.4 112.857 34.12 115.977 38.52L124.457 32.36C119.497 25.4 111.337 20.92 101.977 20.92C86.3772 20.92 73.9772 33.88 73.9772 49.4C73.9772 65.08 86.3772 77.96 101.977 77.96ZM164.955 44.6H144.395V21.88H133.275V77H144.395V54.6H164.955V77H176.075V21.88H164.955V44.6ZM200.645 54.84H221.205V44.84H200.645V31.72H224.085V21.88H189.525V77H224.805V67.16H200.645V54.84ZM265.462 56.04L245.782 21.88H235.462V77H246.582V42.44L266.582 77H276.582V21.88H265.462V56.04ZM321.673 44.6H301.113V21.88H289.993V77H301.113V54.6H321.673V77H332.793V21.88H321.673V44.6ZM370.883 77.96C386.483 77.96 398.963 65.08 398.963 49.48C398.963 33.8 386.483 20.92 370.883 20.92C355.203 20.92 342.883 33.8 342.883 49.48C342.883 65.08 355.203 77.96 370.883 77.96ZM370.883 67.48C360.963 67.48 354.003 59.4 354.003 49.48C354.003 39.56 360.963 31.4 370.883 31.4C380.723 31.4 387.763 39.56 387.763 49.48C387.763 59.4 380.723 67.48 370.883 67.48ZM443.136 21.88H409.056V77H420.176V54.76H438.416V45H420.176V31.72H443.136V21.88Z" fill="black"/>
</svg>
