<svg width="440" height="56" viewBox="0 0 440 56" fill="none" xmlns="http://www.w3.org/2000/svg">
<g clip-path="url(#clip0_769_194)">
<path d="M14.403 34.128H34.153V22.989H14.403V11.771H36.918V0.948002H2V55.379H37.629V44.556H14.403V34.128Z" fill="black"/>
<path d="M60.152 55.379V0.948002H47.749V55.379H60.152Z" fill="black"/>
<path d="M97.2351 56.327C106.794 56.327 115.168 51.508 120.145 44.24L110.507 37.525C107.663 41.949 103.476 44.635 97.7091 44.635C88.3871 44.635 82.0671 37.051 82.0671 28.045C82.0671 19.039 88.6241 11.692 97.7881 11.692C103.476 11.692 107.663 14.378 110.507 18.802L120.145 12.087C115.168 4.819 106.794 0 97.2351 0C81.9091 0 69.5851 12.719 69.5851 28.045C69.5851 43.529 81.9091 56.327 97.2351 56.327Z" fill="black"/>
<path d="M158.551 22.752H140.618V0.948002H128.215V55.379H140.618V33.891H158.551V55.379H170.954V0.948002H158.551V22.752Z" fill="black"/>
<path d="M195.933 34.128H215.683V22.989H195.933V11.771H218.448V0.948002H183.53V55.379H219.159V44.556H195.933V34.128Z" fill="black"/>
<path d="M258.035 31.837L240.655 0.948002H229.279V55.379H241.682V24.095L259.536 55.379H270.438V0.948002H258.035V31.837Z" fill="black"/>
<path d="M313.233 22.752H295.3V0.948002H282.897V55.379H295.3V33.891H313.233V55.379H325.636V0.948002H313.233V22.752Z" fill="black"/>
<path d="M362.861 56.327C378.187 56.327 390.59 43.529 390.59 28.124C390.59 12.719 378.187 0 362.861 0C347.298 0 335.053 12.719 335.053 28.124C335.053 43.529 347.298 56.327 362.861 56.327ZM362.782 44.635C353.618 44.635 347.535 37.209 347.535 28.124C347.535 19.039 353.618 11.692 362.782 11.692C371.867 11.692 378.108 19.039 378.108 28.124C378.108 37.209 371.867 44.635 362.782 44.635Z" fill="black"/>
<path d="M434.376 0.948002H399.932V55.379H412.335V33.97H429.794V23.226H412.335V11.771H434.376V0.948002Z" fill="black"/>
</g>
<defs>
<clipPath id="clip0_769_194">
<rect width="440" height="56" fill="white"/>
</clipPath>
</defs>
</svg>
