<svg width="300" height="200" viewBox="0 0 300 200" fill="none" xmlns="http://www.w3.org/2000/svg">
<rect width="300" height="200" fill="#686F6F" fill-opacity="0.1"/>
<mask id="mask0_59_27" style="mask-type:alpha" maskUnits="userSpaceOnUse" x="100" y="50" width="100" height="100">
<rect x="100" y="50" width="100" height="100" fill="#D9D9D9"/>
</mask>
<g mask="url(#mask0_59_27)">
<path d="M165.577 97.4839L152.676 84.5833C152.313 84.22 152.058 83.8452 151.911 83.4588C151.764 83.0724 151.691 82.6584 151.691 82.2168C151.691 81.7752 151.764 81.3648 151.911 80.9855C152.058 80.6062 152.313 80.235 152.676 79.8717L165.577 66.9711C165.94 66.6078 166.315 66.3528 166.701 66.2059C167.088 66.0589 167.502 65.9855 167.943 65.9855C168.385 65.9855 168.795 66.0589 169.175 66.2059C169.554 66.3528 169.925 66.6078 170.288 66.9711L183.189 79.8717C183.552 80.235 183.807 80.6098 183.954 80.9962C184.101 81.3826 184.175 81.7966 184.175 82.2382C184.175 82.6798 184.101 83.0902 183.954 83.4695C183.807 83.8488 183.552 84.22 183.189 84.5833L170.288 97.4839C169.925 97.8472 169.55 98.1023 169.164 98.2492C168.778 98.3961 168.364 98.4695 167.922 98.4695C167.48 98.4695 167.07 98.3961 166.691 98.2492C166.311 98.1023 165.94 97.8472 165.577 97.4839ZM119.231 90.8654V72.5961C119.231 71.6426 119.553 70.8433 120.198 70.1982C120.843 69.5532 121.643 69.2307 122.596 69.2307H140.865C141.819 69.2307 142.618 69.5532 143.263 70.1982C143.908 70.8433 144.231 71.6426 144.231 72.5961V90.8654C144.231 91.8189 143.908 92.6182 143.263 93.2632C142.618 93.9082 141.819 94.2307 140.865 94.2307H122.596C121.643 94.2307 120.843 93.9082 120.198 93.2632C119.553 92.6182 119.231 91.8189 119.231 90.8654ZM155.769 127.404V109.135C155.769 108.181 156.092 107.382 156.737 106.737C157.382 106.092 158.181 105.769 159.135 105.769H177.404C178.357 105.769 179.157 106.092 179.802 106.737C180.447 107.382 180.769 108.181 180.769 109.135V127.404C180.769 128.357 180.447 129.157 179.802 129.802C179.157 130.447 178.357 130.769 177.404 130.769H159.135C158.181 130.769 157.382 130.447 156.737 129.802C156.092 129.157 155.769 128.357 155.769 127.404ZM119.231 127.404V109.135C119.231 108.181 119.553 107.382 120.198 106.737C120.843 106.092 121.643 105.769 122.596 105.769H140.865C141.819 105.769 142.618 106.092 143.263 106.737C143.908 107.382 144.231 108.181 144.231 109.135V127.404C144.231 128.357 143.908 129.157 143.263 129.802C142.618 130.447 141.819 130.769 140.865 130.769H122.596C121.643 130.769 120.843 130.447 120.198 129.802C119.553 129.157 119.231 128.357 119.231 127.404ZM123.397 90.064H140.064V73.3973H123.397V90.064ZM168.037 94.1026L179.808 82.3317L168.037 70.5609L156.266 82.3317L168.037 94.1026ZM159.936 126.603H176.603V109.936H159.936V126.603ZM123.397 126.603H140.064V109.936H123.397V126.603Z" fill="#686F6F"/>
</g>
</svg>
