<svg width="300" height="200" viewBox="0 0 300 200" fill="none" xmlns="http://www.w3.org/2000/svg">
<rect width="300" height="200" fill="#686F6F" fill-opacity="0.1"/>
<mask id="mask0_29_131" style="mask-type:alpha" maskUnits="userSpaceOnUse" x="100" y="50" width="100" height="100">
<rect x="100" y="50" width="100" height="100" fill="#D9D9D9"/>
</mask>
<g mask="url(#mask0_29_131)">
<path d="M162.66 129.167C162.067 129.167 161.572 128.968 161.174 128.57C160.776 128.172 160.577 127.676 160.577 127.083C160.577 126.49 160.776 125.995 161.174 125.597C161.572 125.199 162.067 125 162.66 125H168.67C170.385 125 171.868 124.414 173.121 123.241C174.374 122.069 175 120.625 175 118.91V110.096C175 107.778 175.71 105.729 177.131 103.95C178.552 102.172 180.379 100.964 182.612 100.329V99.6715C180.379 99.0358 178.552 97.8285 177.131 96.0497C175.71 94.2708 175 92.2222 175 89.9039V81.0897C175 79.375 174.374 77.9314 173.121 76.7589C171.868 75.5863 170.385 75 168.67 75H162.66C162.067 75 161.572 74.801 161.174 74.403C160.776 74.005 160.577 73.5096 160.577 72.9167C160.577 72.3237 160.776 71.8282 161.174 71.4303C161.572 71.0323 162.067 70.8333 162.66 70.8333H168.67C171.554 70.8333 174.025 71.8349 176.082 73.8381C178.138 75.8413 179.167 78.2585 179.167 81.0897V89.9039C179.167 91.672 179.806 93.1557 181.086 94.3549C182.365 95.5542 183.916 96.1539 185.737 96.1539C186.277 96.1539 186.705 96.3261 187.023 96.6706C187.341 97.0152 187.5 97.4306 187.5 97.9167V102.083C187.5 102.569 187.341 102.985 187.023 103.329C186.705 103.674 186.277 103.846 185.737 103.846C183.916 103.846 182.365 104.446 181.086 105.645C179.806 106.844 179.167 108.328 179.167 110.096V118.91C179.167 121.742 178.138 124.159 176.082 126.162C174.025 128.165 171.554 129.167 168.67 129.167H162.66ZM131.33 129.167C128.446 129.167 125.975 128.165 123.918 126.162C121.862 124.159 120.833 121.742 120.833 118.91V110.096C120.833 108.328 120.194 106.844 118.914 105.645C117.635 104.446 116.084 103.846 114.263 103.846C113.777 103.846 113.361 103.674 113.017 103.329C112.672 102.985 112.5 102.569 112.5 102.083V97.9167C112.5 97.4306 112.672 97.0152 113.017 96.6706C113.361 96.3261 113.777 96.1539 114.263 96.1539C116.084 96.1539 117.635 95.5542 118.914 94.3549C120.194 93.1557 120.833 91.672 120.833 89.9039V81.0897C120.833 78.2585 121.862 75.8413 123.918 73.8381C125.975 71.8349 128.446 70.8333 131.33 70.8333H137.42C138.013 70.8333 138.508 71.0323 138.906 71.4303C139.304 71.8282 139.503 72.3237 139.503 72.9167C139.503 73.5096 139.304 74.005 138.906 74.403C138.508 74.801 138.013 75 137.42 75H131.33C129.615 75 128.132 75.5863 126.879 76.7589C125.626 77.9314 125 79.375 125 81.0897V89.9039C125 92.2222 124.29 94.2708 122.869 96.0497C121.448 97.8285 119.621 99.0358 117.388 99.6715V100.329C119.621 100.964 121.448 102.172 122.869 103.95C124.29 105.729 125 107.778 125 110.096V118.91C125 120.625 125.626 122.069 126.879 123.241C128.132 124.414 129.615 125 131.33 125H137.42C138.013 125 138.508 125.199 138.906 125.597C139.304 125.995 139.503 126.49 139.503 127.083C139.503 127.676 139.304 128.172 138.906 128.57C138.508 128.968 138.013 129.167 137.42 129.167H131.33Z" fill="#686F6F"/>
</g>
</svg>
