<svg width="300" height="200" viewBox="0 0 300 200" fill="none" xmlns="http://www.w3.org/2000/svg">
<rect width="300" height="200" fill="#FFA502" fill-opacity="0.1"/>
<mask id="mask0_23_2" style="mask-type:alpha" maskUnits="userSpaceOnUse" x="100" y="50" width="100" height="100">
<rect x="100" y="50" width="100" height="100" fill="#D9D9D9"/>
</mask>
<g mask="url(#mask0_23_2)">
<path d="M150 113.534C149.551 113.534 149.137 113.46 148.758 113.313C148.379 113.166 148.008 112.911 147.644 112.548L136.731 101.635C136.325 101.229 136.112 100.751 136.094 100.2C136.075 99.6501 136.287 99.1453 136.731 98.6858C137.19 98.2265 137.686 97.9928 138.217 97.9847C138.749 97.9767 139.244 98.2024 139.704 98.6619L147.917 106.875V72.9167C147.917 72.3237 148.116 71.8282 148.514 71.4303C148.912 71.0323 149.407 70.8333 150 70.8333C150.593 70.8333 151.088 71.0323 151.486 71.4303C151.884 71.8282 152.083 72.3237 152.083 72.9167V106.875L160.296 98.6619C160.702 98.2558 161.185 98.0435 161.743 98.0248C162.301 98.0061 162.81 98.2265 163.269 98.6858C163.713 99.1453 163.938 99.6367 163.946 100.16C163.954 100.684 163.729 101.175 163.269 101.635L152.356 112.548C151.993 112.911 151.621 113.166 151.242 113.313C150.863 113.46 150.449 113.534 150 113.534ZM127.564 129.167C125.646 129.167 124.045 128.524 122.76 127.24C121.476 125.955 120.833 124.354 120.833 122.436V114.423C120.833 113.83 121.032 113.335 121.43 112.937C121.828 112.539 122.324 112.34 122.917 112.34C123.51 112.34 124.005 112.539 124.403 112.937C124.801 113.335 125 113.83 125 114.423V122.436C125 123.077 125.267 123.665 125.801 124.199C126.336 124.733 126.923 125 127.564 125H172.436C173.077 125 173.665 124.733 174.199 124.199C174.733 123.665 175 123.077 175 122.436V114.423C175 113.83 175.199 113.335 175.597 112.937C175.995 112.539 176.49 112.34 177.083 112.34C177.676 112.34 178.172 112.539 178.57 112.937C178.968 113.335 179.167 113.83 179.167 114.423V122.436C179.167 124.354 178.524 125.955 177.24 127.24C175.955 128.524 174.354 129.167 172.436 129.167H127.564Z" fill="#FFA502"/>
</g>
</svg>
