<svg width="300" height="200" viewBox="0 0 300 200" fill="none" xmlns="http://www.w3.org/2000/svg">
<rect width="300" height="200" fill="#3742FA" fill-opacity="0.1"/>
<mask id="mask0_41_2" style="mask-type:alpha" maskUnits="userSpaceOnUse" x="100" y="50" width="100" height="100">
<rect x="100" y="50" width="100" height="100" fill="#D9D9D9"/>
</mask>
<g mask="url(#mask0_41_2)">
<path d="M123.397 133.333C121.48 133.333 119.878 132.691 118.594 131.406C117.309 130.122 116.667 128.52 116.667 126.603V73.3974C116.667 71.4797 117.309 69.8785 118.594 68.5937C119.878 67.309 121.48 66.6667 123.397 66.6667H176.603C178.52 66.6667 180.122 67.309 181.406 68.5937C182.691 69.8785 183.333 71.4797 183.333 73.3974V126.603C183.333 128.52 182.691 130.122 181.406 131.406C180.122 132.691 178.52 133.333 176.603 133.333H123.397ZM120.833 102.564H179.167V73.3974C179.167 72.7564 178.9 72.1688 178.365 71.6346C177.831 71.1004 177.244 70.8333 176.603 70.8333H123.397C122.756 70.8333 122.169 71.1004 121.635 71.6346C121.1 72.1688 120.833 72.7564 120.833 73.3974V102.564ZM120.833 106.731V126.603C120.833 127.244 121.1 127.831 121.635 128.365C122.169 128.9 122.756 129.167 123.397 129.167H176.603C177.244 129.167 177.831 128.9 178.365 128.365C178.9 127.831 179.167 127.244 179.167 126.603V106.731H120.833Z" fill="#3742FA"/>
</g>
<rect x="119" y="105" width="62" height="26" fill="#3742FA" fill-opacity="0.3"/>
</svg>
