<svg width="300" height="200" viewBox="0 0 300 200" fill="none" xmlns="http://www.w3.org/2000/svg">
<rect width="300" height="200" fill="#FFA502" fill-opacity="0.1"/>
<mask id="mask0_31_142" style="mask-type:alpha" maskUnits="userSpaceOnUse" x="100" y="40" width="100" height="100">
<rect x="100" y="40" width="100" height="100" fill="#D9D9D9"/>
</mask>
<g mask="url(#mask0_31_142)">
<path d="M123.397 134.583C121.48 134.583 119.878 133.941 118.594 132.656C117.309 131.372 116.667 129.77 116.667 127.853V74.6474C116.667 72.7297 117.309 71.1285 118.594 69.8437C119.878 68.559 121.48 67.9167 123.397 67.9167H157.38L153.213 72.0833H123.397C122.756 72.0833 122.169 72.3504 121.635 72.8846C121.1 73.4188 120.833 74.0064 120.833 74.6474V127.853C120.833 128.494 121.1 129.081 121.635 129.615C122.169 130.15 122.756 130.417 123.397 130.417H176.603C177.244 130.417 177.831 130.15 178.365 129.615C178.9 129.081 179.167 128.494 179.167 127.853V98.0128L183.333 93.8461V127.853C183.333 129.77 182.691 131.372 181.406 132.656C180.122 133.941 178.52 134.583 176.603 134.583H123.397ZM170.361 69.0304L173.413 71.9792L145.833 99.4792V105.417H151.667L179.431 77.8125L182.324 80.6811L155.12 107.965C154.623 108.462 154.032 108.856 153.345 109.147C152.659 109.438 151.947 109.583 151.21 109.583H145.032C144.065 109.583 143.262 109.264 142.624 108.626C141.986 107.987 141.667 107.185 141.667 106.218V100.04C141.667 99.3029 141.808 98.5911 142.091 97.9047C142.374 97.2182 142.764 96.6266 143.261 96.1298L170.361 69.0304ZM182.324 80.6811L170.361 69.0304L179.014 60.3766C180.307 59.0839 181.903 58.4375 183.802 58.4375C185.701 58.4375 187.289 59.1106 188.566 60.4567L190.873 62.7083C192.15 64.0385 192.789 65.6223 192.789 67.4599C192.789 69.2975 192.123 70.8814 190.793 72.2116L182.324 80.6811Z" fill="#FFA502"/>
</g>
<path d="M153 107.5H144.5V98L174 68.5L183 77.5L153 107.5Z" fill="#FFA502" fill-opacity="0.3"/>
</svg>
