<svg width="300" height="200" viewBox="0 0 300 200" fill="none" xmlns="http://www.w3.org/2000/svg">
<rect width="300" height="200" fill="#3742FA" fill-opacity="0.1"/>
<mask id="mask0_25_42" style="mask-type:alpha" maskUnits="userSpaceOnUse" x="100" y="50" width="100" height="100">
<rect x="100" y="50" width="100" height="100" fill="#D9D9D9"/>
</mask>
<g mask="url(#mask0_25_42)">
<path d="M130.929 88.3013H157.532C158.499 88.3013 159.302 87.9821 159.94 87.3437C160.578 86.7054 160.897 85.9028 160.897 84.9359V83.3333C160.897 82.3664 160.578 81.5638 159.94 80.9255C159.302 80.2871 158.499 79.9679 157.532 79.9679H130.929C129.963 79.9679 129.16 80.2871 128.522 80.9255C127.883 81.5638 127.564 82.3664 127.564 83.3333V84.9359C127.564 85.9028 127.883 86.7054 128.522 87.3437C129.16 87.9821 129.963 88.3013 130.929 88.3013ZM123.397 133.333C121.48 133.333 119.878 132.691 118.594 131.406C117.309 130.122 116.667 128.52 116.667 126.603V73.3974C116.667 71.4797 117.309 69.8785 118.594 68.5937C119.878 67.309 121.48 66.6667 123.397 66.6667H176.603C178.52 66.6667 180.121 67.309 181.406 68.5937C182.691 69.8785 183.333 71.4797 183.333 73.3974V126.603C183.333 128.52 182.691 130.122 181.406 131.406C180.121 132.691 178.52 133.333 176.603 133.333H123.397ZM123.397 129.167H176.603C177.244 129.167 177.831 128.9 178.365 128.365C178.9 127.831 179.167 127.244 179.167 126.603V73.3974C179.167 72.7564 178.9 72.1688 178.365 71.6346C177.831 71.1004 177.244 70.8333 176.603 70.8333H123.397C122.756 70.8333 122.169 71.1004 121.635 71.6346C121.1 72.1688 120.833 72.7564 120.833 73.3974V126.603C120.833 127.244 121.1 127.831 121.635 128.365C122.169 128.9 122.756 129.167 123.397 129.167Z" fill="#3742FA"/>
</g>
</svg>
