<svg width="300" height="200" viewBox="0 0 300 200" fill="none" xmlns="http://www.w3.org/2000/svg">
<rect width="300" height="200" fill="#3742FA" fill-opacity="0.1"/>
<mask id="mask0_25_42" style="mask-type:alpha" maskUnits="userSpaceOnUse" x="100" y="50" width="100" height="100">
<rect x="100" y="50" width="100" height="100" fill="#D9D9D9"/>
</mask>
<g mask="url(#mask0_25_42)">
<path d="M119.231 129.167C117.313 129.167 115.712 128.524 114.427 127.24C113.142 125.955 112.5 124.354 112.5 122.436V77.5641C112.5 75.6464 113.142 74.0451 114.427 72.7604C115.712 71.4757 117.313 70.8333 119.231 70.8333H180.769C182.687 70.8333 184.288 71.4757 185.573 72.7604C186.858 74.0451 187.5 75.6464 187.5 77.5641V122.436C187.5 124.354 186.858 125.955 185.573 127.24C184.288 128.524 182.687 129.167 180.769 129.167H119.231ZM119.231 125H180.769C181.41 125 181.998 124.733 182.532 124.199C183.066 123.665 183.333 123.077 183.333 122.436V77.5641C183.333 76.9231 183.066 76.3355 182.532 75.8013C181.998 75.2671 181.41 75 180.769 75H119.231C118.59 75 118.002 75.2671 117.468 75.8013C116.934 76.3355 116.667 76.9231 116.667 77.5641V122.436C116.667 123.077 116.934 123.665 117.468 124.199C118.002 124.733 118.59 125 119.231 125ZM137.34 111.859H162.66C163.627 111.859 164.43 111.54 165.068 110.901C165.706 110.263 166.026 109.46 166.026 108.494V91.5065C166.026 90.5395 165.706 89.7369 165.068 89.0986C164.43 88.4602 163.627 88.1411 162.66 88.1411H137.34C136.373 88.1411 135.57 88.4602 134.932 89.0986C134.294 89.7369 133.974 90.5395 133.974 91.5065V108.494C133.974 109.46 134.294 110.263 134.932 110.901C135.57 111.54 136.373 111.859 137.34 111.859Z" fill="#3742FA"/>
</g>
<rect x="116" y="74" width="68" height="52" fill="#3742FA" fill-opacity="0.3"/>
</svg>
