<svg width="300" height="200" viewBox="0 0 300 200" fill="none" xmlns="http://www.w3.org/2000/svg">
<rect width="300" height="200" fill="#3742FA" fill-opacity="0.1"/>
<mask id="mask0_29_114" style="mask-type:alpha" maskUnits="userSpaceOnUse" x="100" y="50" width="100" height="100">
<rect x="100" y="50" width="100" height="100" fill="#D9D9D9"/>
</mask>
<g mask="url(#mask0_29_114)">
<path d="M118.83 120.833C117.415 120.833 116.405 120.216 115.801 118.982C115.198 117.748 115.31 116.571 116.138 115.449L126.875 101.034C127.548 100.136 128.446 99.6875 129.567 99.6875C130.689 99.6875 131.587 100.136 132.26 101.034L143.99 116.667H179.567L158.734 88.9583L146.234 105.593L143.59 102.083L156.042 85.4888C156.715 84.5913 157.612 84.1426 158.734 84.1426C159.856 84.1426 160.753 84.5913 161.426 85.4888L183.862 115.449C184.69 116.571 184.802 117.748 184.199 118.982C183.595 120.216 182.586 120.833 181.17 120.833H118.83ZM120.433 116.667H138.782L129.567 104.319L120.433 116.667Z" fill="#3742FA"/>
</g>
</svg>
