<svg width="300" height="200" viewBox="0 0 300 200" fill="none" xmlns="http://www.w3.org/2000/svg">
<rect width="300" height="200" fill="#3742FA" fill-opacity="0.1"/>
<mask id="mask0_26_59" style="mask-type:alpha" maskUnits="userSpaceOnUse" x="100" y="50" width="100" height="100">
<rect x="100" y="50" width="100" height="100" fill="#D9D9D9"/>
</mask>
<g mask="url(#mask0_26_59)">
<path d="M120.032 117.708C119.078 117.708 118.279 117.386 117.634 116.741C116.989 116.096 116.667 115.296 116.667 114.343V85.6571C116.667 84.7035 116.989 83.9042 117.634 83.2592C118.279 82.6142 119.078 82.2917 120.032 82.2917H148.718C149.671 82.2917 150.471 82.6142 151.116 83.2592C151.761 83.9042 152.083 84.7035 152.083 85.6571V114.343C152.083 115.296 151.761 116.096 151.116 116.741C150.471 117.386 149.671 117.708 148.718 117.708H120.032ZM120.833 113.542H147.917V86.4583H120.833V113.542ZM118.75 70.8333C118.16 70.8333 117.665 70.6334 117.266 70.2335C116.866 69.8337 116.667 69.3382 116.667 68.7472C116.667 68.1561 116.866 67.6616 117.266 67.2636C117.665 66.8657 118.16 66.6667 118.75 66.6667H181.25C181.84 66.6667 182.335 66.8666 182.734 67.2664C183.134 67.6662 183.333 68.1617 183.333 68.7528C183.333 69.3438 183.134 69.8384 182.734 70.2363C182.335 70.6343 181.84 70.8333 181.25 70.8333H118.75ZM164.103 86.4583C163.512 86.4583 163.017 86.2584 162.618 85.8585C162.219 85.4587 162.019 84.9632 162.019 84.3722C162.019 83.7811 162.219 83.2866 162.618 82.8886C163.017 82.4907 163.512 82.2917 164.103 82.2917H181.25C181.84 82.2917 182.335 82.4916 182.734 82.8914C183.134 83.2912 183.333 83.7867 183.333 84.3778C183.333 84.9688 183.134 85.4634 182.734 85.8613C182.335 86.2593 181.84 86.4583 181.25 86.4583H164.103ZM164.103 102.083C163.512 102.083 163.017 101.883 162.618 101.484C162.219 101.084 162.019 100.588 162.019 99.9972C162.019 99.4061 162.219 98.9116 162.618 98.5136C163.017 98.1156 163.512 97.9167 164.103 97.9167H181.25C181.84 97.9167 182.335 98.1166 182.734 98.5164C183.134 98.9162 183.333 99.4117 183.333 100.003C183.333 100.594 183.134 101.088 182.734 101.486C182.335 101.884 181.84 102.083 181.25 102.083H164.103ZM164.103 117.708C163.512 117.708 163.017 117.508 162.618 117.109C162.219 116.709 162.019 116.213 162.019 115.622C162.019 115.031 162.219 114.537 162.618 114.139C163.017 113.741 163.512 113.542 164.103 113.542H181.25C181.84 113.542 182.335 113.742 182.734 114.141C183.134 114.541 183.333 115.037 183.333 115.628C183.333 116.219 183.134 116.713 182.734 117.111C182.335 117.509 181.84 117.708 181.25 117.708H164.103ZM118.75 133.333C118.16 133.333 117.665 133.133 117.266 132.734C116.866 132.334 116.667 131.838 116.667 131.247C116.667 130.656 116.866 130.162 117.266 129.764C117.665 129.366 118.16 129.167 118.75 129.167H181.25C181.84 129.167 182.335 129.367 182.734 129.766C183.134 130.166 183.333 130.662 183.333 131.253C183.333 131.844 183.134 132.338 182.734 132.736C182.335 133.134 181.84 133.333 181.25 133.333H118.75Z" fill="#3742FA"/>
</g>
</svg>
