<svg width="55" height="55" viewBox="0 0 55 55" fill="none" xmlns="http://www.w3.org/2000/svg">
<path fill-rule="evenodd" clip-rule="evenodd" d="M36.8007 17.5541C34.4061 15.2733 31.3793 14.1041 27.9885 14.1041C21.9923 14.1041 16.9157 18.1483 15.0958 23.6107V23.6111C14.636 24.9911 14.3678 26.4669 14.3678 28.0002C14.3678 29.5335 14.6168 31.0093 15.0957 32.3892H15.0958C16.9157 37.8517 21.9923 41.8959 27.9885 41.8959C31.0919 41.8959 33.7165 41.0525 35.7854 39.6726C38.1992 38.0434 39.8276 35.6476 40.3831 32.8109H27.9885V24.1668H49.636C49.8659 25.566 50 27.0034 50 28.5176C50 35.5134 47.5096 41.4167 43.1801 45.4225C39.387 48.93 34.1954 51 27.9885 51C19.0039 51 11.2453 45.8251 7.4713 38.3118L7.47126 38.3119C5.90038 35.2069 5 31.7186 5 28.0002C5 24.2819 5.90038 20.7936 7.47126 17.6886H7.47165L7.47124 17.6883C11.2452 10.175 19.0038 5 27.9885 5C34.1954 5 39.387 7.28083 43.3525 10.9991L36.8007 17.5541Z" fill="#364040"/>
</svg>
